<?xml version="1.0" encoding="UTF-8" standalone="no"?>
<!DOCTYPE svg PUBLIC "-//W3C//DTD SVG 1.1//EN"
 "http://www.w3.org/Graphics/SVG/1.1/DTD/svg11.dtd">
<!-- Generated by graphviz version 14.1.5 (20260411.2331)
 -->
<!-- Title: starmap Pages: 1 -->
<svg width="3565pt" height="678pt"
 viewBox="0.00 0.00 3565.00 678.00" xmlns="http://www.w3.org/2000/svg" xmlns:xlink="http://www.w3.org/1999/xlink">
<g id="graph0" class="graph" transform="scale(1 1) rotate(0) translate(4 674)">
<title>starmap</title>
<polygon fill="white" stroke="none" points="-4,4 -4,-674 3561,-674 3561,4 -4,4"/>
<g id="clust1" class="cluster">
<title>cluster_cross_paper</title>
<path fill="#fafafa" stroke="#999999" d="M2769,-152C2769,-152 2987,-152 2987,-152 2993,-152 2999,-158 2999,-164 2999,-164 2999,-213.5 2999,-213.5 2999,-219.5 2993,-225.5 2987,-225.5 2987,-225.5 2769,-225.5 2769,-225.5 2763,-225.5 2757,-219.5 2757,-213.5 2757,-213.5 2757,-164 2757,-164 2757,-158 2763,-152 2769,-152"/>
<text xml:space="preserve" text-anchor="middle" x="2878" y="-211.05" font-family="Times,serif" font-size="11.00">cross_paper</text>
</g>
<g id="clust2" class="cluster">
<title>cluster_paper_puppin2020</title>
<path fill="#fafafa" stroke="#999999" d="M1138,-8C1138,-8 2094,-8 2094,-8 2100,-8 2106,-14 2106,-20 2106,-20 2106,-359 2106,-359 2106,-365 2100,-371 2094,-371 2094,-371 1138,-371 1138,-371 1132,-371 1126,-365 1126,-359 1126,-359 1126,-20 1126,-20 1126,-14 1132,-8 1138,-8"/>
<text xml:space="preserve" text-anchor="middle" x="1616" y="-356.55" font-family="Times,serif" font-size="11.00">paper_puppin2020</text>
</g>
<g id="clust3" class="cluster">
<title>cluster_paper_sajedi2022</title>
<path fill="#fafafa" stroke="#999999" d="M2126,-297.5C2126,-297.5 3537,-297.5 3537,-297.5 3543,-297.5 3549,-303.5 3549,-309.5 3549,-309.5 3549,-504.5 3549,-504.5 3549,-510.5 3543,-516.5 3537,-516.5 3537,-516.5 2126,-516.5 2126,-516.5 2120,-516.5 2114,-510.5 2114,-504.5 2114,-504.5 2114,-309.5 2114,-309.5 2114,-303.5 2120,-297.5 2126,-297.5"/>
<text xml:space="preserve" text-anchor="middle" x="2831.5" y="-502.05" font-family="Times,serif" font-size="11.00">paper_sajedi2022</text>
</g>
<g id="clust4" class="cluster">
<title>cluster_paper_zhao2025</title>
<path fill="#fafafa" stroke="#999999" d="M20,-297.5C20,-297.5 1106,-297.5 1106,-297.5 1112,-297.5 1118,-303.5 1118,-309.5 1118,-309.5 1118,-650 1118,-650 1118,-656 1112,-662 1106,-662 1106,-662 20,-662 20,-662 14,-662 8,-656 8,-650 8,-650 8,-309.5 8,-309.5 8,-303.5 14,-297.5 20,-297.5"/>
<text xml:space="preserve" text-anchor="middle" x="563" y="-647.55" font-family="Times,serif" font-size="11.00">paper_zhao2025</text>
</g>
<!-- github:perovskite_arpes_polaron::arpes_polaron_signature_vs_gw_no_polaron -->
<g id="node1" class="node">
<title>github:perovskite_arpes_polaron::arpes_polaron_signature_vs_gw_no_polaron</title>
<polygon fill="#ddffdd" stroke="#44bb44" points="2991.38,-196 2764.62,-196 2764.62,-160 2991.38,-160 2991.38,-196"/>
<text xml:space="preserve" text-anchor="middle" x="2878" y="-181.25" font-family="Helvetica,sans-Serif" font-size="10.00">ARPES polaron signature vs G0W0 baseline</text>
<text xml:space="preserve" text-anchor="middle" x="2878" y="-168.5" font-family="Helvetica,sans-Serif" font-size="10.00">(0.90 → 1.00)</text>
</g>
<!-- github:perovskite_arpes_polaron::gcn_1544d55444d743c8 -->
<g id="node2" class="node">
<title>github:perovskite_arpes_polaron::gcn_1544d55444d743c8</title>
<polygon fill="#d4edda" stroke="#28a745" stroke-width="2" points="1475.12,-196 1306.88,-196 1306.88,-160 1475.12,-160 1475.12,-196"/>
<text xml:space="preserve" text-anchor="middle" x="1391" y="-181.25" font-family="Helvetica,sans-Serif" font-size="10.00">★ ARPES mass 0.26 in CsPbBr3</text>
<text xml:space="preserve" text-anchor="middle" x="1391" y="-168.5" font-family="Helvetica,sans-Serif" font-size="10.00">(0.98)</text>
</g>
<!-- github:perovskite_arpes_polaron::gcn_2e9e6e30a5d7431c -->
<g id="node3" class="node">
<title>github:perovskite_arpes_polaron::gcn_2e9e6e30a5d7431c</title>
<polygon fill="#ddeeff" stroke="#4488bb" points="1687.38,-341.5 1490.62,-341.5 1490.62,-305.5 1687.38,-305.5 1687.38,-341.5"/>
<text xml:space="preserve" text-anchor="middle" x="1589" y="-326.75" font-family="Helvetica,sans-Serif" font-size="10.00">Parabolic ARPES mass fit assumption</text>
<text xml:space="preserve" text-anchor="middle" x="1589" y="-314" font-family="Helvetica,sans-Serif" font-size="10.00">(0.82 → 0.88)</text>
</g>
<!-- strat_0 -->
<g id="node11" class="node">
<title>strat_0</title>
<ellipse fill="#fff9c4" stroke="#f9a825" cx="1392" cy="-251.5" rx="39.16" ry="18"/>
<text xml:space="preserve" text-anchor="middle" x="1392" y="-248.38" font-family="Helvetica,sans-Serif" font-size="10.00">deduction</text>
</g>
<!-- github:perovskite_arpes_polaron::gcn_2e9e6e30a5d7431c&#45;&gt;strat_0 -->
<g id="edge1" class="edge">
<title>github:perovskite_arpes_polaron::gcn_2e9e6e30a5d7431c&#45;&gt;strat_0</title>
<path fill="none" stroke="black" d="M1539.8,-305.02C1506.77,-293.28 1463.77,-278 1432.68,-266.95"/>
<polygon fill="black" stroke="black" points="1434.23,-263.79 1423.64,-263.74 1431.89,-270.39 1434.23,-263.79"/>
</g>
<!-- github:perovskite_arpes_polaron::gcn_0a71cf6357114b76 -->
<g id="node4" class="node">
<title>github:perovskite_arpes_polaron::gcn_0a71cf6357114b76</title>
<polygon fill="#ddeeff" stroke="#4488bb" points="1297.88,-341.5 1134.12,-341.5 1134.12,-305.5 1297.88,-305.5 1297.88,-341.5"/>
<text xml:space="preserve" text-anchor="middle" x="1216" y="-326.75" font-family="Helvetica,sans-Serif" font-size="10.00">EDC peak defines VBM energy</text>
<text xml:space="preserve" text-anchor="middle" x="1216" y="-314" font-family="Helvetica,sans-Serif" font-size="10.00">(0.80 → 0.86)</text>
</g>
<!-- github:perovskite_arpes_polaron::gcn_0a71cf6357114b76&#45;&gt;strat_0 -->
<g id="edge2" class="edge">
<title>github:perovskite_arpes_polaron::gcn_0a71cf6357114b76&#45;&gt;strat_0</title>
<path fill="none" stroke="black" d="M1259.96,-305.02C1288.36,-293.72 1325.01,-279.14 1352.49,-268.21"/>
<polygon fill="black" stroke="black" points="1353.5,-271.58 1361.5,-264.63 1350.92,-265.07 1353.5,-271.58"/>
</g>
<!-- github:perovskite_arpes_polaron::gcn_e24a3d64aa604555 -->
<g id="node5" class="node">
<title>github:perovskite_arpes_polaron::gcn_e24a3d64aa604555</title>
<polygon fill="#ddeeff" stroke="#4488bb" points="1472.5,-341.5 1315.5,-341.5 1315.5,-305.5 1472.5,-305.5 1472.5,-341.5"/>
<text xml:space="preserve" text-anchor="middle" x="1394" y="-326.75" font-family="Helvetica,sans-Serif" font-size="10.00">ARPES dispersion is bulk&#45;like</text>
<text xml:space="preserve" text-anchor="middle" x="1394" y="-314" font-family="Helvetica,sans-Serif" font-size="10.00">(0.84 → 0.89)</text>
</g>
<!-- github:perovskite_arpes_polaron::gcn_e24a3d64aa604555&#45;&gt;strat_0 -->
<g id="edge3" class="edge">
<title>github:perovskite_arpes_polaron::gcn_e24a3d64aa604555&#45;&gt;strat_0</title>
<path fill="none" stroke="black" d="M1393.51,-305.2C1393.3,-297.91 1393.05,-289.23 1392.82,-281.04"/>
<polygon fill="black" stroke="black" points="1396.32,-281.01 1392.53,-271.12 1389.32,-281.21 1396.32,-281.01"/>
</g>
<!-- github:perovskite_arpes_polaron::gcn_5e907da32c114d34 -->
<g id="node6" class="node">
<title>github:perovskite_arpes_polaron::gcn_5e907da32c114d34</title>
<polygon fill="#ddffdd" stroke="#44bb44" points="1782.75,-52 1561.25,-52 1561.25,-16 1782.75,-16 1782.75,-52"/>
<text xml:space="preserve" text-anchor="middle" x="1672" y="-37.25" font-family="Helvetica,sans-Serif" font-size="10.00">Feynman polaron reproduces ARPES mass</text>
<text xml:space="preserve" text-anchor="middle" x="1672" y="-24.5" font-family="Helvetica,sans-Serif" font-size="10.00">(0.97)</text>
</g>
<!-- github:perovskite_arpes_polaron::gcn_943f1f964b7a4374 -->
<g id="node7" class="node">
<title>github:perovskite_arpes_polaron::gcn_943f1f964b7a4374</title>
<polygon fill="#ddeeff" stroke="#4488bb" points="1698.5,-196 1493.5,-196 1493.5,-160 1698.5,-160 1698.5,-196"/>
<text xml:space="preserve" text-anchor="middle" x="1596" y="-181.25" font-family="Helvetica,sans-Serif" font-size="10.00">Ab initio Fröhlich workflow assumption</text>
<text xml:space="preserve" text-anchor="middle" x="1596" y="-168.5" font-family="Helvetica,sans-Serif" font-size="10.00">(0.72 → 0.82)</text>
</g>
<!-- strat_1 -->
<g id="node12" class="node">
<title>strat_1</title>
<ellipse fill="#fff9c4" stroke="#f9a825" cx="1628" cy="-106" rx="39.16" ry="18"/>
<text xml:space="preserve" text-anchor="middle" x="1628" y="-102.88" font-family="Helvetica,sans-Serif" font-size="10.00">deduction</text>
</g>
<!-- github:perovskite_arpes_polaron::gcn_943f1f964b7a4374&#45;&gt;strat_1 -->
<g id="edge5" class="edge">
<title>github:perovskite_arpes_polaron::gcn_943f1f964b7a4374&#45;&gt;strat_1</title>
<path fill="none" stroke="black" d="M1603.91,-159.7C1607.4,-152.07 1611.58,-142.92 1615.48,-134.4"/>
<polygon fill="black" stroke="black" points="1618.58,-136.03 1619.55,-125.48 1612.21,-133.12 1618.58,-136.03"/>
</g>
<!-- github:perovskite_arpes_polaron::gcn_ffcf3464e99c47ed -->
<g id="node8" class="node">
<title>github:perovskite_arpes_polaron::gcn_ffcf3464e99c47ed</title>
<polygon fill="#ddffdd" stroke="#44bb44" points="1907.75,-196 1716.25,-196 1716.25,-160 1907.75,-160 1907.75,-196"/>
<text xml:space="preserve" text-anchor="middle" x="1812" y="-181.25" font-family="Helvetica,sans-Serif" font-size="10.00">Polaron mass calculation gives 0.24</text>
<text xml:space="preserve" text-anchor="middle" x="1812" y="-168.5" font-family="Helvetica,sans-Serif" font-size="10.00">(0.90)</text>
</g>
<!-- strat_11 -->
<g id="node14" class="node">
<title>strat_11</title>
<ellipse fill="#fff9c4" stroke="#f9a825" cx="1780" cy="-106" rx="32.28" ry="18"/>
<text xml:space="preserve" text-anchor="middle" x="1780" y="-102.88" font-family="Helvetica,sans-Serif" font-size="10.00">support</text>
</g>
<!-- github:perovskite_arpes_polaron::gcn_ffcf3464e99c47ed&#45;&gt;strat_11 -->
<g id="edge32" class="edge">
<title>github:perovskite_arpes_polaron::gcn_ffcf3464e99c47ed&#45;&gt;strat_11</title>
<path fill="none" stroke="black" d="M1804.09,-159.7C1800.55,-151.95 1796.29,-142.64 1792.35,-134.02"/>
<polygon fill="black" stroke="black" points="1795.57,-132.64 1788.23,-125 1789.2,-135.55 1795.57,-132.64"/>
</g>
<!-- github:perovskite_arpes_polaron::gcn_2b322b6a88d742ba -->
<g id="node9" class="node">
<title>github:perovskite_arpes_polaron::gcn_2b322b6a88d742ba</title>
<polygon fill="#ddeeff" stroke="#4488bb" points="1900.25,-341.5 1705.75,-341.5 1705.75,-305.5 1900.25,-305.5 1900.25,-341.5"/>
<text xml:space="preserve" text-anchor="middle" x="1803" y="-326.75" font-family="Helvetica,sans-Serif" font-size="10.00">Feynman mass formula is valid here</text>
<text xml:space="preserve" text-anchor="middle" x="1803" y="-314" font-family="Helvetica,sans-Serif" font-size="10.00">(0.72 → 0.76)</text>
</g>
<!-- strat_2 -->
<g id="node13" class="node">
<title>strat_2</title>
<ellipse fill="#fff9c4" stroke="#f9a825" cx="1806" cy="-251.5" rx="39.16" ry="18"/>
<text xml:space="preserve" text-anchor="middle" x="1806" y="-248.38" font-family="Helvetica,sans-Serif" font-size="10.00">deduction</text>
</g>
<!-- github:perovskite_arpes_polaron::gcn_2b322b6a88d742ba&#45;&gt;strat_2 -->
<g id="edge7" class="edge">
<title>github:perovskite_arpes_polaron::gcn_2b322b6a88d742ba&#45;&gt;strat_2</title>
<path fill="none" stroke="black" d="M1803.74,-305.2C1804.05,-297.91 1804.43,-289.23 1804.78,-281.04"/>
<polygon fill="black" stroke="black" points="1808.27,-281.26 1805.2,-271.12 1801.28,-280.96 1808.27,-281.26"/>
</g>
<!-- github:perovskite_arpes_polaron::gcn_4ad259a13be9454a -->
<g id="node10" class="node">
<title>github:perovskite_arpes_polaron::gcn_4ad259a13be9454a</title>
<polygon fill="#ddeeff" stroke="#4488bb" points="2097.75,-341.5 1918.25,-341.5 1918.25,-305.5 2097.75,-305.5 2097.75,-341.5"/>
<text xml:space="preserve" text-anchor="middle" x="2008" y="-326.75" font-family="Helvetica,sans-Serif" font-size="10.00">ARPES mass as polaron signature</text>
<text xml:space="preserve" text-anchor="middle" x="2008" y="-314" font-family="Helvetica,sans-Serif" font-size="10.00">(0.68 → 0.33)</text>
</g>
<!-- oper_0 -->
<g id="node43" class="node">
<title>oper_0</title>
<polygon fill="#ffebee" stroke="#c62828" points="2942.29,-251.5 2910.15,-269.5 2845.85,-269.5 2813.71,-251.5 2845.85,-233.5 2910.15,-233.5 2942.29,-251.5"/>
<text xml:space="preserve" text-anchor="middle" x="2878" y="-248.38" font-family="Helvetica,sans-Serif" font-size="10.00">⊗ contradiction</text>
</g>
<!-- github:perovskite_arpes_polaron::gcn_4ad259a13be9454a&#45;&gt;oper_0 -->
<g id="edge36" class="edge">
<title>github:perovskite_arpes_polaron::gcn_4ad259a13be9454a&#45;&gt;oper_0</title>
<path fill="none" stroke="black" d="M2071.58,-305.03C2084.23,-302.09 2097.47,-299.39 2110,-297.5 2179.38,-287.05 2652.28,-263.44 2819.54,-255.31"/>
</g>
<!-- strat_0&#45;&gt;github:perovskite_arpes_polaron::gcn_1544d55444d743c8 -->
<g id="edge4" class="edge">
<title>strat_0&#45;&gt;github:perovskite_arpes_polaron::gcn_1544d55444d743c8</title>
<path fill="none" stroke="black" d="M1391.76,-233.19C1391.65,-225.72 1391.53,-216.77 1391.41,-208.31"/>
<polygon fill="black" stroke="black" points="1394.91,-208.36 1391.27,-198.41 1387.91,-208.46 1394.91,-208.36"/>
</g>
<!-- strat_1&#45;&gt;github:perovskite_arpes_polaron::gcn_5e907da32c114d34 -->
<g id="edge6" class="edge">
<title>strat_1&#45;&gt;github:perovskite_arpes_polaron::gcn_5e907da32c114d34</title>
<path fill="none" stroke="black" d="M1638.43,-88.41C1643.38,-80.54 1649.42,-70.93 1655,-62.04"/>
<polygon fill="black" stroke="black" points="1657.87,-64.06 1660.23,-53.73 1651.94,-60.33 1657.87,-64.06"/>
</g>
<!-- strat_2&#45;&gt;github:perovskite_arpes_polaron::gcn_ffcf3464e99c47ed -->
<g id="edge8" class="edge">
<title>strat_2&#45;&gt;github:perovskite_arpes_polaron::gcn_ffcf3464e99c47ed</title>
<path fill="none" stroke="black" d="M1807.45,-233.19C1808.1,-225.52 1808.87,-216.29 1809.6,-207.64"/>
<polygon fill="black" stroke="black" points="1813.07,-208.16 1810.41,-197.9 1806.09,-207.58 1813.07,-208.16"/>
</g>
<!-- strat_11&#45;&gt;github:perovskite_arpes_polaron::gcn_5e907da32c114d34 -->
<g id="edge33" class="edge">
<title>strat_11&#45;&gt;github:perovskite_arpes_polaron::gcn_5e907da32c114d34</title>
<path fill="none" stroke="black" d="M1759.43,-91.67C1744.87,-82.23 1724.96,-69.33 1707.82,-58.22"/>
<polygon fill="black" stroke="black" points="1710.2,-55.59 1699.9,-53.08 1706.39,-61.46 1710.2,-55.59"/>
</g>
<!-- github:perovskite_arpes_polaron::gcn_4d0e277c6d2c4cdc -->
<g id="node15" class="node">
<title>github:perovskite_arpes_polaron::gcn_4d0e277c6d2c4cdc</title>
<polygon fill="#ddffdd" stroke="#44bb44" points="2461.88,-341.5 2322.12,-341.5 2322.12,-305.5 2461.88,-305.5 2461.88,-341.5"/>
<text xml:space="preserve" text-anchor="middle" x="2392" y="-326.75" font-family="Helvetica,sans-Serif" font-size="10.00">Sajedi ARPES mass 0.203</text>
<text xml:space="preserve" text-anchor="middle" x="2392" y="-314" font-family="Helvetica,sans-Serif" font-size="10.00">(0.74)</text>
</g>
<!-- github:perovskite_arpes_polaron::gcn_e17b013445234bfa -->
<g id="node16" class="node">
<title>github:perovskite_arpes_polaron::gcn_e17b013445234bfa</title>
<polygon fill="#ddeeff" stroke="#4488bb" points="2288.38,-487 2121.62,-487 2121.62,-451 2288.38,-451 2288.38,-487"/>
<text xml:space="preserve" text-anchor="middle" x="2205" y="-472.25" font-family="Helvetica,sans-Serif" font-size="10.00">Photon energy maps to R point</text>
<text xml:space="preserve" text-anchor="middle" x="2205" y="-459.5" font-family="Helvetica,sans-Serif" font-size="10.00">(0.80 → 0.80)</text>
</g>
<!-- strat_6 -->
<g id="node25" class="node">
<title>strat_6</title>
<ellipse fill="#fff9c4" stroke="#f9a825" cx="2392" cy="-397" rx="39.16" ry="18"/>
<text xml:space="preserve" text-anchor="middle" x="2392" y="-393.88" font-family="Helvetica,sans-Serif" font-size="10.00">deduction</text>
</g>
<!-- github:perovskite_arpes_polaron::gcn_e17b013445234bfa&#45;&gt;strat_6 -->
<g id="edge18" class="edge">
<title>github:perovskite_arpes_polaron::gcn_e17b013445234bfa&#45;&gt;strat_6</title>
<path fill="none" stroke="black" d="M2251.71,-450.52C2282.4,-439.03 2322.16,-424.14 2351.52,-413.15"/>
<polygon fill="black" stroke="black" points="2352.66,-416.46 2360.8,-409.68 2350.2,-409.91 2352.66,-416.46"/>
</g>
<!-- github:perovskite_arpes_polaron::gcn_ccc6a5bf10864de7 -->
<g id="node17" class="node">
<title>github:perovskite_arpes_polaron::gcn_ccc6a5bf10864de7</title>
<polygon fill="#ddeeff" stroke="#4488bb" points="2478,-487 2306,-487 2306,-451 2478,-451 2478,-487"/>
<text xml:space="preserve" text-anchor="middle" x="2392" y="-472.25" font-family="Helvetica,sans-Serif" font-size="10.00">Quadratic fit extracts hole mass</text>
<text xml:space="preserve" text-anchor="middle" x="2392" y="-459.5" font-family="Helvetica,sans-Serif" font-size="10.00">(0.80 → 0.80)</text>
</g>
<!-- github:perovskite_arpes_polaron::gcn_ccc6a5bf10864de7&#45;&gt;strat_6 -->
<g id="edge19" class="edge">
<title>github:perovskite_arpes_polaron::gcn_ccc6a5bf10864de7&#45;&gt;strat_6</title>
<path fill="none" stroke="black" d="M2392,-450.7C2392,-443.41 2392,-434.73 2392,-426.54"/>
<polygon fill="black" stroke="black" points="2395.5,-426.62 2392,-416.62 2388.5,-426.62 2395.5,-426.62"/>
</g>
<!-- github:perovskite_arpes_polaron::gcn_3e860bd7f76e4767 -->
<g id="node18" class="node">
<title>github:perovskite_arpes_polaron::gcn_3e860bd7f76e4767</title>
<polygon fill="#ddeeff" stroke="#4488bb" points="2677.88,-487 2496.12,-487 2496.12,-451 2677.88,-451 2677.88,-487"/>
<text xml:space="preserve" text-anchor="middle" x="2587" y="-472.25" font-family="Helvetica,sans-Serif" font-size="10.00">ARPES mass uncertainty estimate</text>
<text xml:space="preserve" text-anchor="middle" x="2587" y="-459.5" font-family="Helvetica,sans-Serif" font-size="10.00">(0.80 → 0.80)</text>
</g>
<!-- github:perovskite_arpes_polaron::gcn_3e860bd7f76e4767&#45;&gt;strat_6 -->
<g id="edge20" class="edge">
<title>github:perovskite_arpes_polaron::gcn_3e860bd7f76e4767&#45;&gt;strat_6</title>
<path fill="none" stroke="black" d="M2538.3,-450.52C2505.84,-438.87 2463.68,-423.73 2432.95,-412.7"/>
<polygon fill="black" stroke="black" points="2434.21,-409.43 2423.62,-409.35 2431.85,-416.02 2434.21,-409.43"/>
</g>
<!-- github:perovskite_arpes_polaron::gcn_8c3c520295d7488c -->
<g id="node19" class="node">
<title>github:perovskite_arpes_polaron::gcn_8c3c520295d7488c</title>
<polygon fill="#ddffdd" stroke="#44bb44" points="2760.25,-341.5 2589.75,-341.5 2589.75,-305.5 2760.25,-305.5 2760.25,-341.5"/>
<text xml:space="preserve" text-anchor="middle" x="2675" y="-326.75" font-family="Helvetica,sans-Serif" font-size="10.00">G0W0 bare masses for CsPbBr3</text>
<text xml:space="preserve" text-anchor="middle" x="2675" y="-314" font-family="Helvetica,sans-Serif" font-size="10.00">(0.86)</text>
</g>
<!-- strat_10 -->
<g id="node42" class="node">
<title>strat_10</title>
<ellipse fill="#fff9c4" stroke="#f9a825" cx="2465" cy="-251.5" rx="32.28" ry="18"/>
<text xml:space="preserve" text-anchor="middle" x="2465" y="-248.38" font-family="Helvetica,sans-Serif" font-size="10.00">support</text>
</g>
<!-- github:perovskite_arpes_polaron::gcn_8c3c520295d7488c&#45;&gt;strat_10 -->
<g id="edge30" class="edge">
<title>github:perovskite_arpes_polaron::gcn_8c3c520295d7488c&#45;&gt;strat_10</title>
<path fill="none" stroke="black" d="M2622.55,-305.02C2585.44,-292.65 2536.53,-276.34 2503.11,-265.2"/>
<polygon fill="black" stroke="black" points="2504.44,-261.96 2493.85,-262.12 2502.23,-268.6 2504.44,-261.96"/>
</g>
<!-- github:perovskite_arpes_polaron::gcn_ec768b9675814820 -->
<g id="node20" class="node">
<title>github:perovskite_arpes_polaron::gcn_ec768b9675814820</title>
<polygon fill="#ddeeff" stroke="#4488bb" points="3047.88,-487 2890.12,-487 2890.12,-451 3047.88,-451 3047.88,-487"/>
<text xml:space="preserve" text-anchor="middle" x="2969" y="-472.25" font-family="Helvetica,sans-Serif" font-size="10.00">Valence&#45;only Wannier caveat</text>
<text xml:space="preserve" text-anchor="middle" x="2969" y="-459.5" font-family="Helvetica,sans-Serif" font-size="10.00">(0.80 → 0.82)</text>
</g>
<!-- strat_7 -->
<g id="node26" class="node">
<title>strat_7</title>
<ellipse fill="#fff9c4" stroke="#f9a825" cx="2784" cy="-397" rx="39.16" ry="18"/>
<text xml:space="preserve" text-anchor="middle" x="2784" y="-393.88" font-family="Helvetica,sans-Serif" font-size="10.00">deduction</text>
</g>
<!-- github:perovskite_arpes_polaron::gcn_ec768b9675814820&#45;&gt;strat_7 -->
<g id="edge22" class="edge">
<title>github:perovskite_arpes_polaron::gcn_ec768b9675814820&#45;&gt;strat_7</title>
<path fill="none" stroke="black" d="M2922.79,-450.52C2892.43,-439.03 2853.09,-424.14 2824.05,-413.15"/>
<polygon fill="black" stroke="black" points="2825.47,-409.95 2814.88,-409.69 2823,-416.5 2825.47,-409.95"/>
</g>
<!-- github:perovskite_arpes_polaron::gcn_5868b15c687043a9 -->
<g id="node21" class="node">
<title>github:perovskite_arpes_polaron::gcn_5868b15c687043a9</title>
<polygon fill="#ddeeff" stroke="#4488bb" points="2871.88,-487 2696.12,-487 2696.12,-451 2871.88,-451 2871.88,-487"/>
<text xml:space="preserve" text-anchor="middle" x="2784" y="-472.25" font-family="Helvetica,sans-Serif" font-size="10.00">G0W0 method sensitivity caveat</text>
<text xml:space="preserve" text-anchor="middle" x="2784" y="-459.5" font-family="Helvetica,sans-Serif" font-size="10.00">(0.80 → 0.82)</text>
</g>
<!-- github:perovskite_arpes_polaron::gcn_5868b15c687043a9&#45;&gt;strat_7 -->
<g id="edge23" class="edge">
<title>github:perovskite_arpes_polaron::gcn_5868b15c687043a9&#45;&gt;strat_7</title>
<path fill="none" stroke="black" d="M2784,-450.7C2784,-443.41 2784,-434.73 2784,-426.54"/>
<polygon fill="black" stroke="black" points="2787.5,-426.62 2784,-416.62 2780.5,-426.62 2787.5,-426.62"/>
</g>
<!-- github:perovskite_arpes_polaron::gcn_762777de8c644c17 -->
<g id="node22" class="node">
<title>github:perovskite_arpes_polaron::gcn_762777de8c644c17</title>
<polygon fill="#ddffdd" stroke="#44bb44" points="3129.75,-341.5 2926.25,-341.5 2926.25,-305.5 3129.75,-305.5 3129.75,-341.5"/>
<text xml:space="preserve" text-anchor="middle" x="3028" y="-326.75" font-family="Helvetica,sans-Serif" font-size="10.00">G0W0 explains ARPES without polaron</text>
<text xml:space="preserve" text-anchor="middle" x="3028" y="-314" font-family="Helvetica,sans-Serif" font-size="10.00">(0.52)</text>
</g>
<!-- github:perovskite_arpes_polaron::gcn_762777de8c644c17&#45;&gt;oper_0 -->
<g id="edge37" class="edge">
<title>github:perovskite_arpes_polaron::gcn_762777de8c644c17&#45;&gt;oper_0</title>
<path fill="none" stroke="black" d="M2990.54,-305.02C2966.59,-293.84 2935.76,-279.45 2912.42,-268.56"/>
</g>
<!-- github:perovskite_arpes_polaron::gcn_1fc9a84fbc6e4a1b -->
<g id="node23" class="node">
<title>github:perovskite_arpes_polaron::gcn_1fc9a84fbc6e4a1b</title>
<polygon fill="#ddeeff" stroke="#4488bb" points="3541.25,-487 3304.75,-487 3304.75,-451 3541.25,-451 3541.25,-487"/>
<text xml:space="preserve" text-anchor="middle" x="3423" y="-472.25" font-family="Helvetica,sans-Serif" font-size="10.00">Orthorhombic model comparison assumption</text>
<text xml:space="preserve" text-anchor="middle" x="3423" y="-459.5" font-family="Helvetica,sans-Serif" font-size="10.00">(0.72 → 0.61)</text>
</g>
<!-- strat_8 -->
<g id="node27" class="node">
<title>strat_8</title>
<ellipse fill="#fff9c4" stroke="#f9a825" cx="3176" cy="-397" rx="39.16" ry="18"/>
<text xml:space="preserve" text-anchor="middle" x="3176" y="-393.88" font-family="Helvetica,sans-Serif" font-size="10.00">deduction</text>
</g>
<!-- github:perovskite_arpes_polaron::gcn_1fc9a84fbc6e4a1b&#45;&gt;strat_8 -->
<g id="edge25" class="edge">
<title>github:perovskite_arpes_polaron::gcn_1fc9a84fbc6e4a1b&#45;&gt;strat_8</title>
<path fill="none" stroke="black" d="M3361.31,-450.52C3317.22,-438.02 3258.97,-421.51 3219.64,-410.37"/>
<polygon fill="black" stroke="black" points="3220.61,-407.01 3210.04,-407.65 3218.7,-413.74 3220.61,-407.01"/>
</g>
<!-- github:perovskite_arpes_polaron::gcn_e808f6450bfc4207 -->
<g id="node24" class="node">
<title>github:perovskite_arpes_polaron::gcn_e808f6450bfc4207</title>
<polygon fill="#ddeeff" stroke="#4488bb" points="3286.38,-487 3065.62,-487 3065.62,-451 3286.38,-451 3286.38,-487"/>
<text xml:space="preserve" text-anchor="middle" x="3176" y="-472.25" font-family="Helvetica,sans-Serif" font-size="10.00">50 percent polaron mass would overshoot</text>
<text xml:space="preserve" text-anchor="middle" x="3176" y="-459.5" font-family="Helvetica,sans-Serif" font-size="10.00">(0.80 → 0.72)</text>
</g>
<!-- github:perovskite_arpes_polaron::gcn_e808f6450bfc4207&#45;&gt;strat_8 -->
<g id="edge26" class="edge">
<title>github:perovskite_arpes_polaron::gcn_e808f6450bfc4207&#45;&gt;strat_8</title>
<path fill="none" stroke="black" d="M3176,-450.7C3176,-443.41 3176,-434.73 3176,-426.54"/>
<polygon fill="black" stroke="black" points="3179.5,-426.62 3176,-416.62 3172.5,-426.62 3179.5,-426.62"/>
</g>
<!-- strat_6&#45;&gt;github:perovskite_arpes_polaron::gcn_4d0e277c6d2c4cdc -->
<g id="edge21" class="edge">
<title>strat_6&#45;&gt;github:perovskite_arpes_polaron::gcn_4d0e277c6d2c4cdc</title>
<path fill="none" stroke="black" d="M2392,-378.69C2392,-371.02 2392,-361.79 2392,-353.14"/>
<polygon fill="black" stroke="black" points="2395.5,-353.41 2392,-343.41 2388.5,-353.41 2395.5,-353.41"/>
</g>
<!-- strat_7&#45;&gt;github:perovskite_arpes_polaron::gcn_8c3c520295d7488c -->
<g id="edge24" class="edge">
<title>strat_7&#45;&gt;github:perovskite_arpes_polaron::gcn_8c3c520295d7488c</title>
<path fill="none" stroke="black" d="M2762.2,-381.7C2747.56,-372.1 2727.91,-359.21 2710.98,-348.1"/>
<polygon fill="black" stroke="black" points="2712.92,-345.19 2702.64,-342.63 2709.08,-351.04 2712.92,-345.19"/>
</g>
<!-- strat_8&#45;&gt;github:perovskite_arpes_polaron::gcn_762777de8c644c17 -->
<g id="edge27" class="edge">
<title>strat_8&#45;&gt;github:perovskite_arpes_polaron::gcn_762777de8c644c17</title>
<path fill="none" stroke="black" d="M3149.88,-383.38C3129.04,-373.31 3099.32,-358.96 3074.45,-346.94"/>
<polygon fill="black" stroke="black" points="3076.02,-343.81 3065.49,-342.61 3072.97,-350.11 3076.02,-343.81"/>
</g>
<!-- github:perovskite_arpes_polaron::gcn_e4a5cac31481497c -->
<g id="node28" class="node">
<title>github:perovskite_arpes_polaron::gcn_e4a5cac31481497c</title>
<polygon fill="#ddffdd" stroke="#44bb44" points="1102,-341.5 912,-341.5 912,-305.5 1102,-305.5 1102,-341.5"/>
<text xml:space="preserve" text-anchor="middle" x="1007" y="-326.75" font-family="Helvetica,sans-Serif" font-size="10.00">Finite&#45;T AIMD matches ARPES mass</text>
<text xml:space="preserve" text-anchor="middle" x="1007" y="-314" font-family="Helvetica,sans-Serif" font-size="10.00">(0.94)</text>
</g>
<!-- strat_9 -->
<g id="node41" class="node">
<title>strat_9</title>
<ellipse fill="#fff9c4" stroke="#f9a825" cx="1046" cy="-251.5" rx="32.28" ry="18"/>
<text xml:space="preserve" text-anchor="middle" x="1046" y="-248.38" font-family="Helvetica,sans-Serif" font-size="10.00">support</text>
</g>
<!-- github:perovskite_arpes_polaron::gcn_e4a5cac31481497c&#45;&gt;strat_9 -->
<g id="edge28" class="edge">
<title>github:perovskite_arpes_polaron::gcn_e4a5cac31481497c&#45;&gt;strat_9</title>
<path fill="none" stroke="black" d="M1016.64,-305.2C1021.05,-297.28 1026.37,-287.73 1031.27,-278.94"/>
<polygon fill="black" stroke="black" points="1034.19,-280.88 1036,-270.44 1028.08,-277.48 1034.19,-280.88"/>
</g>
<!-- github:perovskite_arpes_polaron::gcn_c24c81b8a5fe413c -->
<g id="node29" class="node">
<title>github:perovskite_arpes_polaron::gcn_c24c81b8a5fe413c</title>
<polygon fill="#ddeeff" stroke="#4488bb" points="672.25,-487 417.75,-487 417.75,-451 672.25,-451 672.25,-487"/>
<text xml:space="preserve" text-anchor="middle" x="545" y="-472.25" font-family="Helvetica,sans-Serif" font-size="10.00">Single AIMD snapshot represents ARPES average</text>
<text xml:space="preserve" text-anchor="middle" x="545" y="-459.5" font-family="Helvetica,sans-Serif" font-size="10.00">(0.72 → 0.78)</text>
</g>
<!-- strat_3 -->
<g id="node37" class="node">
<title>strat_3</title>
<ellipse fill="#fff9c4" stroke="#f9a825" cx="429" cy="-397" rx="39.16" ry="18"/>
<text xml:space="preserve" text-anchor="middle" x="429" y="-393.88" font-family="Helvetica,sans-Serif" font-size="10.00">deduction</text>
</g>
<!-- github:perovskite_arpes_polaron::gcn_c24c81b8a5fe413c&#45;&gt;strat_3 -->
<g id="edge9" class="edge">
<title>github:perovskite_arpes_polaron::gcn_c24c81b8a5fe413c&#45;&gt;strat_3</title>
<path fill="none" stroke="black" d="M516.03,-450.52C499.54,-440.56 478.82,-428.07 461.74,-417.76"/>
<polygon fill="black" stroke="black" points="463.83,-414.93 453.46,-412.76 460.22,-420.92 463.83,-414.93"/>
</g>
<!-- github:perovskite_arpes_polaron::gcn_43c66f240368417e -->
<g id="node30" class="node">
<title>github:perovskite_arpes_polaron::gcn_43c66f240368417e</title>
<polygon fill="#ddeeff" stroke="#4488bb" points="210.25,-487 15.75,-487 15.75,-451 210.25,-451 210.25,-487"/>
<text xml:space="preserve" text-anchor="middle" x="113" y="-472.25" font-family="Helvetica,sans-Serif" font-size="10.00">Bulk unfolding comparable to ARPES</text>
<text xml:space="preserve" text-anchor="middle" x="113" y="-459.5" font-family="Helvetica,sans-Serif" font-size="10.00">(0.72 → 0.78)</text>
</g>
<!-- github:perovskite_arpes_polaron::gcn_43c66f240368417e&#45;&gt;strat_3 -->
<g id="edge10" class="edge">
<title>github:perovskite_arpes_polaron::gcn_43c66f240368417e&#45;&gt;strat_3</title>
<path fill="none" stroke="black" d="M191.93,-450.52C252.13,-437.18 332.98,-419.27 383,-408.19"/>
<polygon fill="black" stroke="black" points="383.62,-411.64 392.62,-406.06 382.1,-404.8 383.62,-411.64"/>
</g>
<!-- github:perovskite_arpes_polaron::gcn_1c2bf8f398f243f9 -->
<g id="node31" class="node">
<title>github:perovskite_arpes_polaron::gcn_1c2bf8f398f243f9</title>
<polygon fill="#ddeeff" stroke="#4488bb" points="400,-487 228,-487 228,-451 400,-451 400,-487"/>
<text xml:space="preserve" text-anchor="middle" x="314" y="-472.25" font-family="Helvetica,sans-Serif" font-size="10.00">PBE AIMD sampling is adequate</text>
<text xml:space="preserve" text-anchor="middle" x="314" y="-459.5" font-family="Helvetica,sans-Serif" font-size="10.00">(0.72 → 0.78)</text>
</g>
<!-- github:perovskite_arpes_polaron::gcn_1c2bf8f398f243f9&#45;&gt;strat_3 -->
<g id="edge11" class="edge">
<title>github:perovskite_arpes_polaron::gcn_1c2bf8f398f243f9&#45;&gt;strat_3</title>
<path fill="none" stroke="black" d="M342.72,-450.52C359.07,-440.56 379.61,-428.07 396.54,-417.76"/>
<polygon fill="black" stroke="black" points="398.02,-420.96 404.74,-412.77 394.38,-414.98 398.02,-420.96"/>
</g>
<!-- github:perovskite_arpes_polaron::gcn_78dd3a5f6fb84289 -->
<g id="node32" class="node">
<title>github:perovskite_arpes_polaron::gcn_78dd3a5f6fb84289</title>
<polygon fill="#ddffdd" stroke="#44bb44" points="886,-487 690,-487 690,-451 886,-451 886,-487"/>
<text xml:space="preserve" text-anchor="middle" x="788" y="-472.25" font-family="Helvetica,sans-Serif" font-size="10.00">No small&#45;hole polaron in 300 K AIMD</text>
<text xml:space="preserve" text-anchor="middle" x="788" y="-459.5" font-family="Helvetica,sans-Serif" font-size="10.00">(0.88)</text>
</g>
<!-- github:perovskite_arpes_polaron::gcn_82d0efc0c1024ec8 -->
<g id="node33" class="node">
<title>github:perovskite_arpes_polaron::gcn_82d0efc0c1024ec8</title>
<polygon fill="#ddeeff" stroke="#4488bb" points="660.25,-632.5 477.75,-632.5 477.75,-596.5 660.25,-596.5 660.25,-632.5"/>
<text xml:space="preserve" text-anchor="middle" x="569" y="-617.75" font-family="Helvetica,sans-Serif" font-size="10.00">Small&#45;polaron simulation criterion</text>
<text xml:space="preserve" text-anchor="middle" x="569" y="-605" font-family="Helvetica,sans-Serif" font-size="10.00">(0.80 → 0.80)</text>
</g>
<!-- strat_4 -->
<g id="node38" class="node">
<title>strat_4</title>
<ellipse fill="#fff9c4" stroke="#f9a825" cx="678" cy="-542.5" rx="39.16" ry="18"/>
<text xml:space="preserve" text-anchor="middle" x="678" y="-539.38" font-family="Helvetica,sans-Serif" font-size="10.00">deduction</text>
</g>
<!-- github:perovskite_arpes_polaron::gcn_82d0efc0c1024ec8&#45;&gt;strat_4 -->
<g id="edge13" class="edge">
<title>github:perovskite_arpes_polaron::gcn_82d0efc0c1024ec8&#45;&gt;strat_4</title>
<path fill="none" stroke="black" d="M596.22,-596.02C611.47,-586.22 630.56,-573.97 646.46,-563.76"/>
<polygon fill="black" stroke="black" points="648.08,-566.87 654.61,-558.52 644.3,-560.98 648.08,-566.87"/>
</g>
<!-- github:perovskite_arpes_polaron::gcn_3f848904ab0d4b48 -->
<g id="node34" class="node">
<title>github:perovskite_arpes_polaron::gcn_3f848904ab0d4b48</title>
<polygon fill="#ddffdd" stroke="#44bb44" points="1110.25,-487 903.75,-487 903.75,-451 1110.25,-451 1110.25,-487"/>
<text xml:space="preserve" text-anchor="middle" x="1007" y="-472.25" font-family="Helvetica,sans-Serif" font-size="10.00">Thermal disorder renormalizes masses</text>
<text xml:space="preserve" text-anchor="middle" x="1007" y="-459.5" font-family="Helvetica,sans-Serif" font-size="10.00">(0.81)</text>
</g>
<!-- strat_12 -->
<g id="node40" class="node">
<title>strat_12</title>
<ellipse fill="#fff9c4" stroke="#f9a825" cx="1007" cy="-397" rx="32.28" ry="18"/>
<text xml:space="preserve" text-anchor="middle" x="1007" y="-393.88" font-family="Helvetica,sans-Serif" font-size="10.00">support</text>
</g>
<!-- github:perovskite_arpes_polaron::gcn_3f848904ab0d4b48&#45;&gt;strat_12 -->
<g id="edge34" class="edge">
<title>github:perovskite_arpes_polaron::gcn_3f848904ab0d4b48&#45;&gt;strat_12</title>
<path fill="none" stroke="black" d="M1007,-450.7C1007,-443.41 1007,-434.73 1007,-426.54"/>
<polygon fill="black" stroke="black" points="1010.5,-426.62 1007,-416.62 1003.5,-426.62 1010.5,-426.62"/>
</g>
<!-- github:perovskite_arpes_polaron::gcn_00749f497c204b4c -->
<g id="node35" class="node">
<title>github:perovskite_arpes_polaron::gcn_00749f497c204b4c</title>
<polygon fill="#ddeeff" stroke="#4488bb" points="905.38,-632.5 678.62,-632.5 678.62,-596.5 905.38,-596.5 905.38,-632.5"/>
<text xml:space="preserve" text-anchor="middle" x="792" y="-617.75" font-family="Helvetica,sans-Serif" font-size="10.00">Representative snapshot mass assumption</text>
<text xml:space="preserve" text-anchor="middle" x="792" y="-605" font-family="Helvetica,sans-Serif" font-size="10.00">(0.72 → 0.74)</text>
</g>
<!-- strat_5 -->
<g id="node39" class="node">
<title>strat_5</title>
<ellipse fill="#fff9c4" stroke="#f9a825" cx="1007" cy="-542.5" rx="39.16" ry="18"/>
<text xml:space="preserve" text-anchor="middle" x="1007" y="-539.38" font-family="Helvetica,sans-Serif" font-size="10.00">deduction</text>
</g>
<!-- github:perovskite_arpes_polaron::gcn_00749f497c204b4c&#45;&gt;strat_5 -->
<g id="edge15" class="edge">
<title>github:perovskite_arpes_polaron::gcn_00749f497c204b4c&#45;&gt;strat_5</title>
<path fill="none" stroke="black" d="M845.7,-596.02C882.62,-583.99 930.96,-568.26 965.06,-557.16"/>
<polygon fill="black" stroke="black" points="965.73,-560.62 974.16,-554.19 963.56,-553.96 965.73,-560.62"/>
</g>
<!-- github:perovskite_arpes_polaron::gcn_869be47d79c54464 -->
<g id="node36" class="node">
<title>github:perovskite_arpes_polaron::gcn_869be47d79c54464</title>
<polygon fill="#ddeeff" stroke="#4488bb" points="1110.12,-632.5 923.88,-632.5 923.88,-596.5 1110.12,-596.5 1110.12,-632.5"/>
<text xml:space="preserve" text-anchor="middle" x="1017" y="-617.75" font-family="Helvetica,sans-Serif" font-size="10.00">Mass change attributed to disorder</text>
<text xml:space="preserve" text-anchor="middle" x="1017" y="-605" font-family="Helvetica,sans-Serif" font-size="10.00">(0.72 → 0.74)</text>
</g>
<!-- github:perovskite_arpes_polaron::gcn_869be47d79c54464&#45;&gt;strat_5 -->
<g id="edge16" class="edge">
<title>github:perovskite_arpes_polaron::gcn_869be47d79c54464&#45;&gt;strat_5</title>
<path fill="none" stroke="black" d="M1014.53,-596.2C1013.47,-588.82 1012.22,-580.02 1011.04,-571.75"/>
<polygon fill="black" stroke="black" points="1014.54,-571.51 1009.66,-562.1 1007.61,-572.5 1014.54,-571.51"/>
</g>
<!-- strat_3&#45;&gt;github:perovskite_arpes_polaron::gcn_e4a5cac31481497c -->
<g id="edge12" class="edge">
<title>strat_3&#45;&gt;github:perovskite_arpes_polaron::gcn_e4a5cac31481497c</title>
<path fill="none" stroke="black" d="M466.48,-391.36C552.95,-380.67 769.04,-353.94 900.31,-337.7"/>
<polygon fill="black" stroke="black" points="900.57,-341.19 910.07,-336.49 899.71,-334.24 900.57,-341.19"/>
</g>
<!-- strat_4&#45;&gt;github:perovskite_arpes_polaron::gcn_78dd3a5f6fb84289 -->
<g id="edge14" class="edge">
<title>strat_4&#45;&gt;github:perovskite_arpes_polaron::gcn_78dd3a5f6fb84289</title>
<path fill="none" stroke="black" d="M700,-527.2C714.91,-517.51 734.97,-504.47 752.17,-493.29"/>
<polygon fill="black" stroke="black" points="753.64,-496.51 760.11,-488.13 749.82,-490.64 753.64,-496.51"/>
</g>
<!-- strat_5&#45;&gt;github:perovskite_arpes_polaron::gcn_3f848904ab0d4b48 -->
<g id="edge17" class="edge">
<title>strat_5&#45;&gt;github:perovskite_arpes_polaron::gcn_3f848904ab0d4b48</title>
<path fill="none" stroke="black" d="M1007,-524.19C1007,-516.52 1007,-507.29 1007,-498.64"/>
<polygon fill="black" stroke="black" points="1010.5,-498.91 1007,-488.91 1003.5,-498.91 1010.5,-498.91"/>
</g>
<!-- strat_12&#45;&gt;github:perovskite_arpes_polaron::gcn_e4a5cac31481497c -->
<g id="edge35" class="edge">
<title>strat_12&#45;&gt;github:perovskite_arpes_polaron::gcn_e4a5cac31481497c</title>
<path fill="none" stroke="black" d="M1007,-378.69C1007,-371.02 1007,-361.79 1007,-353.14"/>
<polygon fill="black" stroke="black" points="1010.5,-353.41 1007,-343.41 1003.5,-353.41 1010.5,-353.41"/>
</g>
<!-- strat_9&#45;&gt;github:perovskite_arpes_polaron::gcn_1544d55444d743c8 -->
<g id="edge29" class="edge">
<title>strat_9&#45;&gt;github:perovskite_arpes_polaron::gcn_1544d55444d743c8</title>
<path fill="none" stroke="black" d="M1075.57,-243.74C1089.62,-240.57 1106.66,-236.77 1122,-233.5 1179.31,-221.29 1243.64,-208.23 1295.01,-197.96"/>
<polygon fill="black" stroke="black" points="1295.5,-201.43 1304.62,-196.04 1294.13,-194.57 1295.5,-201.43"/>
</g>
<!-- strat_10&#45;&gt;github:perovskite_arpes_polaron::gcn_1544d55444d743c8 -->
<g id="edge31" class="edge">
<title>strat_10&#45;&gt;github:perovskite_arpes_polaron::gcn_1544d55444d743c8</title>
<path fill="none" stroke="black" d="M2432.71,-248.57C2370.36,-244.94 2229.03,-237.11 2110,-233.5 2075.29,-232.45 1518.76,-233.62 1485,-225.5 1465.5,-220.81 1445.38,-211.55 1428.78,-202.52"/>
<polygon fill="black" stroke="black" points="1430.69,-199.57 1420.26,-197.71 1427.25,-205.67 1430.69,-199.57"/>
</g>
<!-- oper_0&#45;&gt;github:perovskite_arpes_polaron::arpes_polaron_signature_vs_gw_no_polaron -->
<g id="edge38" class="edge">
<title>oper_0&#45;&gt;github:perovskite_arpes_polaron::arpes_polaron_signature_vs_gw_no_polaron</title>
<path fill="none" stroke="black" d="M2878,-233.19C2878,-222.03 2878,-207.57 2878,-196.4"/>
</g>
</g>
</svg>
