<?xml version="1.0" encoding="UTF-8" standalone="no"?>
<!DOCTYPE svg PUBLIC "-//W3C//DTD SVG 1.1//EN"
 "http://www.w3.org/Graphics/SVG/1.1/DTD/svg11.dtd">
<!-- Generated by graphviz version 14.1.5 (20260411.2331)
 -->
<!-- Title: starmap Pages: 1 -->
<svg width="3072pt" height="675pt"
 viewBox="0.00 0.00 3072.00 675.00" xmlns="http://www.w3.org/2000/svg" xmlns:xlink="http://www.w3.org/1999/xlink">
<g id="graph0" class="graph" transform="scale(1 1) rotate(0) translate(4 671)">
<title>starmap</title>
<polygon fill="white" stroke="none" points="-4,4 -4,-671 3068,-671 3068,4 -4,4"/>
<g id="clust1" class="cluster">
<title>cluster_paper_puppin2020</title>
<path fill="#fafafa" stroke="#999999" d="M1139,-8C1139,-8 2094,-8 2094,-8 2100,-8 2106,-14 2106,-20 2106,-20 2106,-357.5 2106,-357.5 2106,-363.5 2100,-369.5 2094,-369.5 2094,-369.5 1139,-369.5 1139,-369.5 1133,-369.5 1127,-363.5 1127,-357.5 1127,-357.5 1127,-20 1127,-20 1127,-14 1133,-8 1139,-8"/>
<text xml:space="preserve" text-anchor="middle" x="1616.5" y="-355.05" font-family="Times,serif" font-size="11.00">paper_puppin2020</text>
</g>
<g id="clust2" class="cluster">
<title>cluster_paper_sajedi2022</title>
<path fill="#fafafa" stroke="#999999" d="M2126,-296C2126,-296 3044,-296 3044,-296 3050,-296 3056,-302 3056,-308 3056,-308 3056,-647 3056,-647 3056,-653 3050,-659 3044,-659 3044,-659 2126,-659 2126,-659 2120,-659 2114,-653 2114,-647 2114,-647 2114,-308 2114,-308 2114,-302 2120,-296 2126,-296"/>
<text xml:space="preserve" text-anchor="middle" x="2585" y="-644.55" font-family="Times,serif" font-size="11.00">paper_sajedi2022</text>
</g>
<g id="clust3" class="cluster">
<title>cluster_paper_zhao2025</title>
<path fill="#fafafa" stroke="#999999" d="M20,-296C20,-296 1107,-296 1107,-296 1113,-296 1119,-302 1119,-308 1119,-308 1119,-647 1119,-647 1119,-653 1113,-659 1107,-659 1107,-659 20,-659 20,-659 14,-659 8,-653 8,-647 8,-647 8,-308 8,-308 8,-302 14,-296 20,-296"/>
<text xml:space="preserve" text-anchor="middle" x="563.5" y="-644.55" font-family="Times,serif" font-size="11.00">paper_zhao2025</text>
</g>
<!-- github:perovskite_arpes_polaron::gcn_1544d55444d743c8 -->
<g id="node1" class="node">
<title>github:perovskite_arpes_polaron::gcn_1544d55444d743c8</title>
<polygon fill="#d4edda" stroke="#28a745" stroke-width="2" points="1388.12,-196 1219.88,-196 1219.88,-160 1388.12,-160 1388.12,-196"/>
<text xml:space="preserve" text-anchor="middle" x="1304" y="-181.25" font-family="Helvetica,sans-Serif" font-size="10.00">★ ARPES mass 0.26 in CsPbBr3</text>
<text xml:space="preserve" text-anchor="middle" x="1304" y="-168.5" font-family="Helvetica,sans-Serif" font-size="10.00">(0.91)</text>
</g>
<!-- github:perovskite_arpes_polaron::gcn_2e9e6e30a5d7431c -->
<g id="node2" class="node">
<title>github:perovskite_arpes_polaron::gcn_2e9e6e30a5d7431c</title>
<polygon fill="#ddeeff" stroke="#4488bb" points="1331.38,-340 1134.62,-340 1134.62,-304 1331.38,-304 1331.38,-340"/>
<text xml:space="preserve" text-anchor="middle" x="1233" y="-325.25" font-family="Helvetica,sans-Serif" font-size="10.00">Parabolic ARPES mass fit assumption</text>
<text xml:space="preserve" text-anchor="middle" x="1233" y="-312.5" font-family="Helvetica,sans-Serif" font-size="10.00">(0.82 → 0.86)</text>
</g>
<!-- strat_0 -->
<g id="node10" class="node">
<title>strat_0</title>
<ellipse fill="#fff9c4" stroke="#f9a825" cx="1311" cy="-250" rx="39.16" ry="18"/>
<text xml:space="preserve" text-anchor="middle" x="1311" y="-246.88" font-family="Helvetica,sans-Serif" font-size="10.00">deduction</text>
</g>
<!-- github:perovskite_arpes_polaron::gcn_2e9e6e30a5d7431c&#45;&gt;strat_0 -->
<g id="edge1" class="edge">
<title>github:perovskite_arpes_polaron::gcn_2e9e6e30a5d7431c&#45;&gt;strat_0</title>
<path fill="none" stroke="black" d="M1252.28,-303.7C1262.32,-294.69 1274.72,-283.56 1285.54,-273.85"/>
<polygon fill="black" stroke="black" points="1287.57,-276.73 1292.67,-267.45 1282.89,-271.52 1287.57,-276.73"/>
</g>
<!-- github:perovskite_arpes_polaron::gcn_0a71cf6357114b76 -->
<g id="node3" class="node">
<title>github:perovskite_arpes_polaron::gcn_0a71cf6357114b76</title>
<polygon fill="#ddeeff" stroke="#4488bb" points="1512.88,-340 1349.12,-340 1349.12,-304 1512.88,-304 1512.88,-340"/>
<text xml:space="preserve" text-anchor="middle" x="1431" y="-325.25" font-family="Helvetica,sans-Serif" font-size="10.00">EDC peak defines VBM energy</text>
<text xml:space="preserve" text-anchor="middle" x="1431" y="-312.5" font-family="Helvetica,sans-Serif" font-size="10.00">(0.80 → 0.84)</text>
</g>
<!-- github:perovskite_arpes_polaron::gcn_0a71cf6357114b76&#45;&gt;strat_0 -->
<g id="edge2" class="edge">
<title>github:perovskite_arpes_polaron::gcn_0a71cf6357114b76&#45;&gt;strat_0</title>
<path fill="none" stroke="black" d="M1401.03,-303.52C1383.85,-293.5 1362.25,-280.9 1344.51,-270.55"/>
<polygon fill="black" stroke="black" points="1346.29,-267.53 1335.89,-265.52 1342.76,-273.58 1346.29,-267.53"/>
</g>
<!-- github:perovskite_arpes_polaron::gcn_e24a3d64aa604555 -->
<g id="node4" class="node">
<title>github:perovskite_arpes_polaron::gcn_e24a3d64aa604555</title>
<polygon fill="#ddeeff" stroke="#4488bb" points="1687.5,-340 1530.5,-340 1530.5,-304 1687.5,-304 1687.5,-340"/>
<text xml:space="preserve" text-anchor="middle" x="1609" y="-325.25" font-family="Helvetica,sans-Serif" font-size="10.00">ARPES dispersion is bulk&#45;like</text>
<text xml:space="preserve" text-anchor="middle" x="1609" y="-312.5" font-family="Helvetica,sans-Serif" font-size="10.00">(0.84 → 0.87)</text>
</g>
<!-- github:perovskite_arpes_polaron::gcn_e24a3d64aa604555&#45;&gt;strat_0 -->
<g id="edge3" class="edge">
<title>github:perovskite_arpes_polaron::gcn_e24a3d64aa604555&#45;&gt;strat_0</title>
<path fill="none" stroke="black" d="M1550.65,-303.63C1541.11,-300.96 1531.3,-298.32 1522,-296 1465.91,-281.98 1400.76,-268.51 1357.86,-260.02"/>
<polygon fill="black" stroke="black" points="1358.61,-256.6 1348.13,-258.11 1357.26,-263.47 1358.61,-256.6"/>
</g>
<!-- github:perovskite_arpes_polaron::gcn_5e907da32c114d34 -->
<g id="node5" class="node">
<title>github:perovskite_arpes_polaron::gcn_5e907da32c114d34</title>
<polygon fill="#ddffdd" stroke="#44bb44" points="1773.75,-52 1552.25,-52 1552.25,-16 1773.75,-16 1773.75,-52"/>
<text xml:space="preserve" text-anchor="middle" x="1663" y="-37.25" font-family="Helvetica,sans-Serif" font-size="10.00">Feynman polaron reproduces ARPES mass</text>
<text xml:space="preserve" text-anchor="middle" x="1663" y="-24.5" font-family="Helvetica,sans-Serif" font-size="10.00">(0.97)</text>
</g>
<!-- github:perovskite_arpes_polaron::gcn_943f1f964b7a4374 -->
<g id="node6" class="node">
<title>github:perovskite_arpes_polaron::gcn_943f1f964b7a4374</title>
<polygon fill="#ddeeff" stroke="#4488bb" points="1689.5,-196 1484.5,-196 1484.5,-160 1689.5,-160 1689.5,-196"/>
<text xml:space="preserve" text-anchor="middle" x="1587" y="-181.25" font-family="Helvetica,sans-Serif" font-size="10.00">Ab initio Fröhlich workflow assumption</text>
<text xml:space="preserve" text-anchor="middle" x="1587" y="-168.5" font-family="Helvetica,sans-Serif" font-size="10.00">(0.72 → 0.82)</text>
</g>
<!-- strat_1 -->
<g id="node11" class="node">
<title>strat_1</title>
<ellipse fill="#fff9c4" stroke="#f9a825" cx="1619" cy="-106" rx="39.16" ry="18"/>
<text xml:space="preserve" text-anchor="middle" x="1619" y="-102.88" font-family="Helvetica,sans-Serif" font-size="10.00">deduction</text>
</g>
<!-- github:perovskite_arpes_polaron::gcn_943f1f964b7a4374&#45;&gt;strat_1 -->
<g id="edge5" class="edge">
<title>github:perovskite_arpes_polaron::gcn_943f1f964b7a4374&#45;&gt;strat_1</title>
<path fill="none" stroke="black" d="M1594.91,-159.7C1598.4,-152.07 1602.58,-142.92 1606.48,-134.4"/>
<polygon fill="black" stroke="black" points="1609.58,-136.03 1610.55,-125.48 1603.21,-133.12 1609.58,-136.03"/>
</g>
<!-- github:perovskite_arpes_polaron::gcn_ffcf3464e99c47ed -->
<g id="node7" class="node">
<title>github:perovskite_arpes_polaron::gcn_ffcf3464e99c47ed</title>
<polygon fill="#ddffdd" stroke="#44bb44" points="1898.75,-196 1707.25,-196 1707.25,-160 1898.75,-160 1898.75,-196"/>
<text xml:space="preserve" text-anchor="middle" x="1803" y="-181.25" font-family="Helvetica,sans-Serif" font-size="10.00">Polaron mass calculation gives 0.24</text>
<text xml:space="preserve" text-anchor="middle" x="1803" y="-168.5" font-family="Helvetica,sans-Serif" font-size="10.00">(0.90)</text>
</g>
<!-- strat_11 -->
<g id="node13" class="node">
<title>strat_11</title>
<ellipse fill="#fff9c4" stroke="#f9a825" cx="1771" cy="-106" rx="32.28" ry="18"/>
<text xml:space="preserve" text-anchor="middle" x="1771" y="-102.88" font-family="Helvetica,sans-Serif" font-size="10.00">support</text>
</g>
<!-- github:perovskite_arpes_polaron::gcn_ffcf3464e99c47ed&#45;&gt;strat_11 -->
<g id="edge32" class="edge">
<title>github:perovskite_arpes_polaron::gcn_ffcf3464e99c47ed&#45;&gt;strat_11</title>
<path fill="none" stroke="black" d="M1795.09,-159.7C1791.55,-151.95 1787.29,-142.64 1783.35,-134.02"/>
<polygon fill="black" stroke="black" points="1786.57,-132.64 1779.23,-125 1780.2,-135.55 1786.57,-132.64"/>
</g>
<!-- github:perovskite_arpes_polaron::gcn_2b322b6a88d742ba -->
<g id="node8" class="node">
<title>github:perovskite_arpes_polaron::gcn_2b322b6a88d742ba</title>
<polygon fill="#ddeeff" stroke="#4488bb" points="1900.25,-340 1705.75,-340 1705.75,-304 1900.25,-304 1900.25,-340"/>
<text xml:space="preserve" text-anchor="middle" x="1803" y="-325.25" font-family="Helvetica,sans-Serif" font-size="10.00">Feynman mass formula is valid here</text>
<text xml:space="preserve" text-anchor="middle" x="1803" y="-312.5" font-family="Helvetica,sans-Serif" font-size="10.00">(0.72 → 0.76)</text>
</g>
<!-- strat_2 -->
<g id="node12" class="node">
<title>strat_2</title>
<ellipse fill="#fff9c4" stroke="#f9a825" cx="1803" cy="-250" rx="39.16" ry="18"/>
<text xml:space="preserve" text-anchor="middle" x="1803" y="-246.88" font-family="Helvetica,sans-Serif" font-size="10.00">deduction</text>
</g>
<!-- github:perovskite_arpes_polaron::gcn_2b322b6a88d742ba&#45;&gt;strat_2 -->
<g id="edge7" class="edge">
<title>github:perovskite_arpes_polaron::gcn_2b322b6a88d742ba&#45;&gt;strat_2</title>
<path fill="none" stroke="black" d="M1803,-303.7C1803,-296.41 1803,-287.73 1803,-279.54"/>
<polygon fill="black" stroke="black" points="1806.5,-279.62 1803,-269.62 1799.5,-279.62 1806.5,-279.62"/>
</g>
<!-- github:perovskite_arpes_polaron::gcn_4ad259a13be9454a -->
<g id="node9" class="node">
<title>github:perovskite_arpes_polaron::gcn_4ad259a13be9454a</title>
<polygon fill="#ddeeff" stroke="#4488bb" points="2097.75,-340 1918.25,-340 1918.25,-304 2097.75,-304 2097.75,-340"/>
<text xml:space="preserve" text-anchor="middle" x="2008" y="-325.25" font-family="Helvetica,sans-Serif" font-size="10.00">ARPES mass as polaron signature</text>
<text xml:space="preserve" text-anchor="middle" x="2008" y="-312.5" font-family="Helvetica,sans-Serif" font-size="10.00">(0.68 → 0.10)</text>
</g>
<!-- oper_0 -->
<g id="node43" class="node">
<title>oper_0</title>
<polygon fill="#ffebee" stroke="#c62828" points="2412.29,-250 2380.15,-268 2315.85,-268 2283.71,-250 2315.85,-232 2380.15,-232 2412.29,-250"/>
<text xml:space="preserve" text-anchor="middle" x="2348" y="-246.88" font-family="Helvetica,sans-Serif" font-size="10.00">⊗ contradiction</text>
</g>
<!-- github:perovskite_arpes_polaron::gcn_4ad259a13be9454a&#45;&gt;oper_0 -->
<g id="edge36" class="edge">
<title>github:perovskite_arpes_polaron::gcn_4ad259a13be9454a&#45;&gt;oper_0</title>
<path fill="none" stroke="black" d="M2077.02,-303.55C2088.03,-300.92 2099.31,-298.32 2110,-296 2175.34,-281.83 2251.33,-267.9 2299.53,-259.38"/>
</g>
<!-- strat_0&#45;&gt;github:perovskite_arpes_polaron::gcn_1544d55444d743c8 -->
<g id="edge4" class="edge">
<title>strat_0&#45;&gt;github:perovskite_arpes_polaron::gcn_1544d55444d743c8</title>
<path fill="none" stroke="black" d="M1309.27,-231.7C1308.55,-224.52 1307.7,-215.99 1306.89,-207.9"/>
<polygon fill="black" stroke="black" points="1310.39,-207.7 1305.91,-198.1 1303.42,-208.4 1310.39,-207.7"/>
</g>
<!-- strat_1&#45;&gt;github:perovskite_arpes_polaron::gcn_5e907da32c114d34 -->
<g id="edge6" class="edge">
<title>strat_1&#45;&gt;github:perovskite_arpes_polaron::gcn_5e907da32c114d34</title>
<path fill="none" stroke="black" d="M1629.43,-88.41C1634.38,-80.54 1640.42,-70.93 1646,-62.04"/>
<polygon fill="black" stroke="black" points="1648.87,-64.06 1651.23,-53.73 1642.94,-60.33 1648.87,-64.06"/>
</g>
<!-- strat_2&#45;&gt;github:perovskite_arpes_polaron::gcn_ffcf3464e99c47ed -->
<g id="edge8" class="edge">
<title>strat_2&#45;&gt;github:perovskite_arpes_polaron::gcn_ffcf3464e99c47ed</title>
<path fill="none" stroke="black" d="M1803,-231.7C1803,-224.41 1803,-215.73 1803,-207.54"/>
<polygon fill="black" stroke="black" points="1806.5,-207.62 1803,-197.62 1799.5,-207.62 1806.5,-207.62"/>
</g>
<!-- strat_11&#45;&gt;github:perovskite_arpes_polaron::gcn_5e907da32c114d34 -->
<g id="edge33" class="edge">
<title>strat_11&#45;&gt;github:perovskite_arpes_polaron::gcn_5e907da32c114d34</title>
<path fill="none" stroke="black" d="M1750.43,-91.67C1735.87,-82.23 1715.96,-69.33 1698.82,-58.22"/>
<polygon fill="black" stroke="black" points="1701.2,-55.59 1690.9,-53.08 1697.39,-61.46 1701.2,-55.59"/>
</g>
<!-- github:perovskite_arpes_polaron::gcn_4d0e277c6d2c4cdc -->
<g id="node14" class="node">
<title>github:perovskite_arpes_polaron::gcn_4d0e277c6d2c4cdc</title>
<polygon fill="#ddffdd" stroke="#44bb44" points="2365.88,-485.5 2226.12,-485.5 2226.12,-449.5 2365.88,-449.5 2365.88,-485.5"/>
<text xml:space="preserve" text-anchor="middle" x="2296" y="-470.75" font-family="Helvetica,sans-Serif" font-size="10.00">Sajedi ARPES mass 0.203</text>
<text xml:space="preserve" text-anchor="middle" x="2296" y="-458" font-family="Helvetica,sans-Serif" font-size="10.00">(0.74)</text>
</g>
<!-- github:perovskite_arpes_polaron::gcn_e17b013445234bfa -->
<g id="node15" class="node">
<title>github:perovskite_arpes_polaron::gcn_e17b013445234bfa</title>
<polygon fill="#ddeeff" stroke="#4488bb" points="2288.38,-629.5 2121.62,-629.5 2121.62,-593.5 2288.38,-593.5 2288.38,-629.5"/>
<text xml:space="preserve" text-anchor="middle" x="2205" y="-614.75" font-family="Helvetica,sans-Serif" font-size="10.00">Photon energy maps to R point</text>
<text xml:space="preserve" text-anchor="middle" x="2205" y="-602" font-family="Helvetica,sans-Serif" font-size="10.00">(0.80 → 0.80)</text>
</g>
<!-- strat_6 -->
<g id="node24" class="node">
<title>strat_6</title>
<ellipse fill="#fff9c4" stroke="#f9a825" cx="2344" cy="-539.5" rx="39.16" ry="18"/>
<text xml:space="preserve" text-anchor="middle" x="2344" y="-536.38" font-family="Helvetica,sans-Serif" font-size="10.00">deduction</text>
</g>
<!-- github:perovskite_arpes_polaron::gcn_e17b013445234bfa&#45;&gt;strat_6 -->
<g id="edge18" class="edge">
<title>github:perovskite_arpes_polaron::gcn_e17b013445234bfa&#45;&gt;strat_6</title>
<path fill="none" stroke="black" d="M2239.72,-593.02C2260.63,-582.49 2287.2,-569.1 2308.29,-558.48"/>
<polygon fill="black" stroke="black" points="2309.75,-561.67 2317.1,-554.05 2306.6,-555.42 2309.75,-561.67"/>
</g>
<!-- github:perovskite_arpes_polaron::gcn_ccc6a5bf10864de7 -->
<g id="node16" class="node">
<title>github:perovskite_arpes_polaron::gcn_ccc6a5bf10864de7</title>
<polygon fill="#ddeeff" stroke="#4488bb" points="2478,-629.5 2306,-629.5 2306,-593.5 2478,-593.5 2478,-629.5"/>
<text xml:space="preserve" text-anchor="middle" x="2392" y="-614.75" font-family="Helvetica,sans-Serif" font-size="10.00">Quadratic fit extracts hole mass</text>
<text xml:space="preserve" text-anchor="middle" x="2392" y="-602" font-family="Helvetica,sans-Serif" font-size="10.00">(0.80 → 0.80)</text>
</g>
<!-- github:perovskite_arpes_polaron::gcn_ccc6a5bf10864de7&#45;&gt;strat_6 -->
<g id="edge19" class="edge">
<title>github:perovskite_arpes_polaron::gcn_ccc6a5bf10864de7&#45;&gt;strat_6</title>
<path fill="none" stroke="black" d="M2380.13,-593.2C2374.59,-585.11 2367.87,-575.31 2361.74,-566.37"/>
<polygon fill="black" stroke="black" points="2364.8,-564.64 2356.25,-558.37 2359.02,-568.6 2364.8,-564.64"/>
</g>
<!-- github:perovskite_arpes_polaron::gcn_3e860bd7f76e4767 -->
<g id="node17" class="node">
<title>github:perovskite_arpes_polaron::gcn_3e860bd7f76e4767</title>
<polygon fill="#ddeeff" stroke="#4488bb" points="2677.88,-629.5 2496.12,-629.5 2496.12,-593.5 2677.88,-593.5 2677.88,-629.5"/>
<text xml:space="preserve" text-anchor="middle" x="2587" y="-614.75" font-family="Helvetica,sans-Serif" font-size="10.00">ARPES mass uncertainty estimate</text>
<text xml:space="preserve" text-anchor="middle" x="2587" y="-602" font-family="Helvetica,sans-Serif" font-size="10.00">(0.80 → 0.80)</text>
</g>
<!-- github:perovskite_arpes_polaron::gcn_3e860bd7f76e4767&#45;&gt;strat_6 -->
<g id="edge20" class="edge">
<title>github:perovskite_arpes_polaron::gcn_3e860bd7f76e4767&#45;&gt;strat_6</title>
<path fill="none" stroke="black" d="M2526.31,-593.02C2483.19,-580.6 2426.31,-564.21 2387.62,-553.07"/>
<polygon fill="black" stroke="black" points="2388.76,-549.75 2378.19,-550.35 2386.83,-556.48 2388.76,-549.75"/>
</g>
<!-- github:perovskite_arpes_polaron::gcn_8c3c520295d7488c -->
<g id="node18" class="node">
<title>github:perovskite_arpes_polaron::gcn_8c3c520295d7488c</title>
<polygon fill="#ddffdd" stroke="#44bb44" points="2554.25,-485.5 2383.75,-485.5 2383.75,-449.5 2554.25,-449.5 2554.25,-485.5"/>
<text xml:space="preserve" text-anchor="middle" x="2469" y="-470.75" font-family="Helvetica,sans-Serif" font-size="10.00">G0W0 bare masses for CsPbBr3</text>
<text xml:space="preserve" text-anchor="middle" x="2469" y="-458" font-family="Helvetica,sans-Serif" font-size="10.00">(0.81)</text>
</g>
<!-- strat_10 -->
<g id="node27" class="node">
<title>strat_10</title>
<ellipse fill="#fff9c4" stroke="#f9a825" cx="2469" cy="-395.5" rx="32.28" ry="18"/>
<text xml:space="preserve" text-anchor="middle" x="2469" y="-392.38" font-family="Helvetica,sans-Serif" font-size="10.00">support</text>
</g>
<!-- github:perovskite_arpes_polaron::gcn_8c3c520295d7488c&#45;&gt;strat_10 -->
<g id="edge30" class="edge">
<title>github:perovskite_arpes_polaron::gcn_8c3c520295d7488c&#45;&gt;strat_10</title>
<path fill="none" stroke="black" d="M2469,-449.2C2469,-441.91 2469,-433.23 2469,-425.04"/>
<polygon fill="black" stroke="black" points="2472.5,-425.12 2469,-415.12 2465.5,-425.12 2472.5,-425.12"/>
</g>
<!-- github:perovskite_arpes_polaron::gcn_ec768b9675814820 -->
<g id="node19" class="node">
<title>github:perovskite_arpes_polaron::gcn_ec768b9675814820</title>
<polygon fill="#ddeeff" stroke="#4488bb" points="2853.88,-629.5 2696.12,-629.5 2696.12,-593.5 2853.88,-593.5 2853.88,-629.5"/>
<text xml:space="preserve" text-anchor="middle" x="2775" y="-614.75" font-family="Helvetica,sans-Serif" font-size="10.00">Valence&#45;only Wannier caveat</text>
<text xml:space="preserve" text-anchor="middle" x="2775" y="-602" font-family="Helvetica,sans-Serif" font-size="10.00">(0.80 → 0.80)</text>
</g>
<!-- strat_7 -->
<g id="node25" class="node">
<title>strat_7</title>
<ellipse fill="#fff9c4" stroke="#f9a825" cx="2775" cy="-539.5" rx="39.16" ry="18"/>
<text xml:space="preserve" text-anchor="middle" x="2775" y="-536.38" font-family="Helvetica,sans-Serif" font-size="10.00">deduction</text>
</g>
<!-- github:perovskite_arpes_polaron::gcn_ec768b9675814820&#45;&gt;strat_7 -->
<g id="edge22" class="edge">
<title>github:perovskite_arpes_polaron::gcn_ec768b9675814820&#45;&gt;strat_7</title>
<path fill="none" stroke="black" d="M2775,-593.2C2775,-585.91 2775,-577.23 2775,-569.04"/>
<polygon fill="black" stroke="black" points="2778.5,-569.12 2775,-559.12 2771.5,-569.12 2778.5,-569.12"/>
</g>
<!-- github:perovskite_arpes_polaron::gcn_5868b15c687043a9 -->
<g id="node20" class="node">
<title>github:perovskite_arpes_polaron::gcn_5868b15c687043a9</title>
<polygon fill="#ddeeff" stroke="#4488bb" points="3047.88,-629.5 2872.12,-629.5 2872.12,-593.5 3047.88,-593.5 3047.88,-629.5"/>
<text xml:space="preserve" text-anchor="middle" x="2960" y="-614.75" font-family="Helvetica,sans-Serif" font-size="10.00">G0W0 method sensitivity caveat</text>
<text xml:space="preserve" text-anchor="middle" x="2960" y="-602" font-family="Helvetica,sans-Serif" font-size="10.00">(0.80 → 0.80)</text>
</g>
<!-- github:perovskite_arpes_polaron::gcn_5868b15c687043a9&#45;&gt;strat_7 -->
<g id="edge23" class="edge">
<title>github:perovskite_arpes_polaron::gcn_5868b15c687043a9&#45;&gt;strat_7</title>
<path fill="none" stroke="black" d="M2913.79,-593.02C2883.43,-581.53 2844.09,-566.64 2815.05,-555.65"/>
<polygon fill="black" stroke="black" points="2816.47,-552.45 2805.88,-552.19 2814,-559 2816.47,-552.45"/>
</g>
<!-- github:perovskite_arpes_polaron::gcn_762777de8c644c17 -->
<g id="node21" class="node">
<title>github:perovskite_arpes_polaron::gcn_762777de8c644c17</title>
<polygon fill="#ddffdd" stroke="#44bb44" points="2570.75,-340 2367.25,-340 2367.25,-304 2570.75,-304 2570.75,-340"/>
<text xml:space="preserve" text-anchor="middle" x="2469" y="-325.25" font-family="Helvetica,sans-Serif" font-size="10.00">G0W0 explains ARPES without polaron</text>
<text xml:space="preserve" text-anchor="middle" x="2469" y="-312.5" font-family="Helvetica,sans-Serif" font-size="10.00">(0.86)</text>
</g>
<!-- github:perovskite_arpes_polaron::gcn_762777de8c644c17&#45;&gt;oper_0 -->
<g id="edge37" class="edge">
<title>github:perovskite_arpes_polaron::gcn_762777de8c644c17&#45;&gt;oper_0</title>
<path fill="none" stroke="black" d="M2438.78,-303.52C2420.16,-292.74 2396.38,-278.99 2377.84,-268.26"/>
</g>
<!-- github:perovskite_arpes_polaron::gcn_1fc9a84fbc6e4a1b -->
<g id="node22" class="node">
<title>github:perovskite_arpes_polaron::gcn_1fc9a84fbc6e4a1b</title>
<polygon fill="#ddeeff" stroke="#4488bb" points="2809.25,-485.5 2572.75,-485.5 2572.75,-449.5 2809.25,-449.5 2809.25,-485.5"/>
<text xml:space="preserve" text-anchor="middle" x="2691" y="-470.75" font-family="Helvetica,sans-Serif" font-size="10.00">Orthorhombic model comparison assumption</text>
<text xml:space="preserve" text-anchor="middle" x="2691" y="-458" font-family="Helvetica,sans-Serif" font-size="10.00">(0.72 → 0.76)</text>
</g>
<!-- strat_8 -->
<g id="node26" class="node">
<title>strat_8</title>
<ellipse fill="#fff9c4" stroke="#f9a825" cx="2691" cy="-395.5" rx="39.16" ry="18"/>
<text xml:space="preserve" text-anchor="middle" x="2691" y="-392.38" font-family="Helvetica,sans-Serif" font-size="10.00">deduction</text>
</g>
<!-- github:perovskite_arpes_polaron::gcn_1fc9a84fbc6e4a1b&#45;&gt;strat_8 -->
<g id="edge25" class="edge">
<title>github:perovskite_arpes_polaron::gcn_1fc9a84fbc6e4a1b&#45;&gt;strat_8</title>
<path fill="none" stroke="black" d="M2691,-449.2C2691,-441.91 2691,-433.23 2691,-425.04"/>
<polygon fill="black" stroke="black" points="2694.5,-425.12 2691,-415.12 2687.5,-425.12 2694.5,-425.12"/>
</g>
<!-- github:perovskite_arpes_polaron::gcn_e808f6450bfc4207 -->
<g id="node23" class="node">
<title>github:perovskite_arpes_polaron::gcn_e808f6450bfc4207</title>
<polygon fill="#ddeeff" stroke="#4488bb" points="3048.38,-485.5 2827.62,-485.5 2827.62,-449.5 3048.38,-449.5 3048.38,-485.5"/>
<text xml:space="preserve" text-anchor="middle" x="2938" y="-470.75" font-family="Helvetica,sans-Serif" font-size="10.00">50 percent polaron mass would overshoot</text>
<text xml:space="preserve" text-anchor="middle" x="2938" y="-458" font-family="Helvetica,sans-Serif" font-size="10.00">(0.80 → 0.83)</text>
</g>
<!-- github:perovskite_arpes_polaron::gcn_e808f6450bfc4207&#45;&gt;strat_8 -->
<g id="edge26" class="edge">
<title>github:perovskite_arpes_polaron::gcn_e808f6450bfc4207&#45;&gt;strat_8</title>
<path fill="none" stroke="black" d="M2876.31,-449.02C2832.22,-436.52 2773.97,-420.01 2734.64,-408.87"/>
<polygon fill="black" stroke="black" points="2735.61,-405.51 2725.04,-406.15 2733.7,-412.24 2735.61,-405.51"/>
</g>
<!-- strat_6&#45;&gt;github:perovskite_arpes_polaron::gcn_4d0e277c6d2c4cdc -->
<g id="edge21" class="edge">
<title>strat_6&#45;&gt;github:perovskite_arpes_polaron::gcn_4d0e277c6d2c4cdc</title>
<path fill="none" stroke="black" d="M2332.62,-521.91C2327.17,-513.95 2320.5,-504.22 2314.35,-495.26"/>
<polygon fill="black" stroke="black" points="2317.36,-493.46 2308.82,-487.2 2311.59,-497.42 2317.36,-493.46"/>
</g>
<!-- strat_7&#45;&gt;github:perovskite_arpes_polaron::gcn_8c3c520295d7488c -->
<g id="edge24" class="edge">
<title>strat_7&#45;&gt;github:perovskite_arpes_polaron::gcn_8c3c520295d7488c</title>
<path fill="none" stroke="black" d="M2740.49,-530.61C2696.2,-520.47 2617.78,-502.53 2556.57,-488.53"/>
<polygon fill="black" stroke="black" points="2557.36,-485.12 2546.83,-486.3 2555.8,-491.95 2557.36,-485.12"/>
</g>
<!-- strat_8&#45;&gt;github:perovskite_arpes_polaron::gcn_762777de8c644c17 -->
<g id="edge27" class="edge">
<title>strat_8&#45;&gt;github:perovskite_arpes_polaron::gcn_762777de8c644c17</title>
<path fill="none" stroke="black" d="M2659.66,-384.41C2627.19,-373.95 2575.48,-357.3 2534.1,-343.97"/>
<polygon fill="black" stroke="black" points="2535.31,-340.68 2524.72,-340.95 2533.17,-347.34 2535.31,-340.68"/>
</g>
<!-- strat_10&#45;&gt;github:perovskite_arpes_polaron::gcn_762777de8c644c17 -->
<g id="edge31" class="edge">
<title>strat_10&#45;&gt;github:perovskite_arpes_polaron::gcn_762777de8c644c17</title>
<path fill="none" stroke="black" d="M2469,-377.19C2469,-369.52 2469,-360.29 2469,-351.64"/>
<polygon fill="black" stroke="black" points="2472.5,-351.91 2469,-341.91 2465.5,-351.91 2472.5,-351.91"/>
</g>
<!-- github:perovskite_arpes_polaron::gcn_e4a5cac31481497c -->
<g id="node28" class="node">
<title>github:perovskite_arpes_polaron::gcn_e4a5cac31481497c</title>
<polygon fill="#ddffdd" stroke="#44bb44" points="1103,-340 913,-340 913,-304 1103,-304 1103,-340"/>
<text xml:space="preserve" text-anchor="middle" x="1008" y="-325.25" font-family="Helvetica,sans-Serif" font-size="10.00">Finite&#45;T AIMD matches ARPES mass</text>
<text xml:space="preserve" text-anchor="middle" x="1008" y="-312.5" font-family="Helvetica,sans-Serif" font-size="10.00">(0.93)</text>
</g>
<!-- strat_9 -->
<g id="node42" class="node">
<title>strat_9</title>
<ellipse fill="#fff9c4" stroke="#f9a825" cx="1047" cy="-250" rx="32.28" ry="18"/>
<text xml:space="preserve" text-anchor="middle" x="1047" y="-246.88" font-family="Helvetica,sans-Serif" font-size="10.00">support</text>
</g>
<!-- github:perovskite_arpes_polaron::gcn_e4a5cac31481497c&#45;&gt;strat_9 -->
<g id="edge28" class="edge">
<title>github:perovskite_arpes_polaron::gcn_e4a5cac31481497c&#45;&gt;strat_9</title>
<path fill="none" stroke="black" d="M1017.64,-303.7C1022.05,-295.78 1027.37,-286.23 1032.27,-277.44"/>
<polygon fill="black" stroke="black" points="1035.19,-279.38 1037,-268.94 1029.08,-275.98 1035.19,-279.38"/>
</g>
<!-- github:perovskite_arpes_polaron::gcn_c24c81b8a5fe413c -->
<g id="node29" class="node">
<title>github:perovskite_arpes_polaron::gcn_c24c81b8a5fe413c</title>
<polygon fill="#ddeeff" stroke="#4488bb" points="270.25,-485.5 15.75,-485.5 15.75,-449.5 270.25,-449.5 270.25,-485.5"/>
<text xml:space="preserve" text-anchor="middle" x="143" y="-470.75" font-family="Helvetica,sans-Serif" font-size="10.00">Single AIMD snapshot represents ARPES average</text>
<text xml:space="preserve" text-anchor="middle" x="143" y="-458" font-family="Helvetica,sans-Serif" font-size="10.00">(0.72 → 0.78)</text>
</g>
<!-- strat_3 -->
<g id="node37" class="node">
<title>strat_3</title>
<ellipse fill="#fff9c4" stroke="#f9a825" cx="486" cy="-395.5" rx="39.16" ry="18"/>
<text xml:space="preserve" text-anchor="middle" x="486" y="-392.38" font-family="Helvetica,sans-Serif" font-size="10.00">deduction</text>
</g>
<!-- github:perovskite_arpes_polaron::gcn_c24c81b8a5fe413c&#45;&gt;strat_3 -->
<g id="edge9" class="edge">
<title>github:perovskite_arpes_polaron::gcn_c24c81b8a5fe413c&#45;&gt;strat_3</title>
<path fill="none" stroke="black" d="M228.67,-449.02C295.4,-435.4 385.5,-417.01 439.47,-406"/>
<polygon fill="black" stroke="black" points="440.17,-409.43 449.26,-404 438.77,-402.57 440.17,-409.43"/>
</g>
<!-- github:perovskite_arpes_polaron::gcn_43c66f240368417e -->
<g id="node30" class="node">
<title>github:perovskite_arpes_polaron::gcn_43c66f240368417e</title>
<polygon fill="#ddeeff" stroke="#4488bb" points="483.25,-485.5 288.75,-485.5 288.75,-449.5 483.25,-449.5 483.25,-485.5"/>
<text xml:space="preserve" text-anchor="middle" x="386" y="-470.75" font-family="Helvetica,sans-Serif" font-size="10.00">Bulk unfolding comparable to ARPES</text>
<text xml:space="preserve" text-anchor="middle" x="386" y="-458" font-family="Helvetica,sans-Serif" font-size="10.00">(0.72 → 0.78)</text>
</g>
<!-- github:perovskite_arpes_polaron::gcn_43c66f240368417e&#45;&gt;strat_3 -->
<g id="edge10" class="edge">
<title>github:perovskite_arpes_polaron::gcn_43c66f240368417e&#45;&gt;strat_3</title>
<path fill="none" stroke="black" d="M410.98,-449.02C424.51,-439.54 441.35,-427.76 455.64,-417.75"/>
<polygon fill="black" stroke="black" points="457.63,-420.63 463.81,-412.03 453.61,-414.9 457.63,-420.63"/>
</g>
<!-- github:perovskite_arpes_polaron::gcn_1c2bf8f398f243f9 -->
<g id="node31" class="node">
<title>github:perovskite_arpes_polaron::gcn_1c2bf8f398f243f9</title>
<polygon fill="#ddeeff" stroke="#4488bb" points="673,-485.5 501,-485.5 501,-449.5 673,-449.5 673,-485.5"/>
<text xml:space="preserve" text-anchor="middle" x="587" y="-470.75" font-family="Helvetica,sans-Serif" font-size="10.00">PBE AIMD sampling is adequate</text>
<text xml:space="preserve" text-anchor="middle" x="587" y="-458" font-family="Helvetica,sans-Serif" font-size="10.00">(0.72 → 0.78)</text>
</g>
<!-- github:perovskite_arpes_polaron::gcn_1c2bf8f398f243f9&#45;&gt;strat_3 -->
<g id="edge11" class="edge">
<title>github:perovskite_arpes_polaron::gcn_1c2bf8f398f243f9&#45;&gt;strat_3</title>
<path fill="none" stroke="black" d="M561.77,-449.02C547.87,-439.38 530.53,-427.36 515.95,-417.26"/>
<polygon fill="black" stroke="black" points="518.28,-414.62 508.07,-411.8 514.3,-420.37 518.28,-414.62"/>
</g>
<!-- github:perovskite_arpes_polaron::gcn_78dd3a5f6fb84289 -->
<g id="node32" class="node">
<title>github:perovskite_arpes_polaron::gcn_78dd3a5f6fb84289</title>
<polygon fill="#ddffdd" stroke="#44bb44" points="887,-485.5 691,-485.5 691,-449.5 887,-449.5 887,-485.5"/>
<text xml:space="preserve" text-anchor="middle" x="789" y="-470.75" font-family="Helvetica,sans-Serif" font-size="10.00">No small&#45;hole polaron in 300 K AIMD</text>
<text xml:space="preserve" text-anchor="middle" x="789" y="-458" font-family="Helvetica,sans-Serif" font-size="10.00">(0.88)</text>
</g>
<!-- github:perovskite_arpes_polaron::gcn_82d0efc0c1024ec8 -->
<g id="node33" class="node">
<title>github:perovskite_arpes_polaron::gcn_82d0efc0c1024ec8</title>
<polygon fill="#ddeeff" stroke="#4488bb" points="661.25,-629.5 478.75,-629.5 478.75,-593.5 661.25,-593.5 661.25,-629.5"/>
<text xml:space="preserve" text-anchor="middle" x="570" y="-614.75" font-family="Helvetica,sans-Serif" font-size="10.00">Small&#45;polaron simulation criterion</text>
<text xml:space="preserve" text-anchor="middle" x="570" y="-602" font-family="Helvetica,sans-Serif" font-size="10.00">(0.80 → 0.80)</text>
</g>
<!-- strat_4 -->
<g id="node38" class="node">
<title>strat_4</title>
<ellipse fill="#fff9c4" stroke="#f9a825" cx="679" cy="-539.5" rx="39.16" ry="18"/>
<text xml:space="preserve" text-anchor="middle" x="679" y="-536.38" font-family="Helvetica,sans-Serif" font-size="10.00">deduction</text>
</g>
<!-- github:perovskite_arpes_polaron::gcn_82d0efc0c1024ec8&#45;&gt;strat_4 -->
<g id="edge13" class="edge">
<title>github:perovskite_arpes_polaron::gcn_82d0efc0c1024ec8&#45;&gt;strat_4</title>
<path fill="none" stroke="black" d="M597.22,-593.02C612.47,-583.22 631.56,-570.97 647.46,-560.76"/>
<polygon fill="black" stroke="black" points="649.08,-563.87 655.61,-555.52 645.3,-557.98 649.08,-563.87"/>
</g>
<!-- github:perovskite_arpes_polaron::gcn_3f848904ab0d4b48 -->
<g id="node34" class="node">
<title>github:perovskite_arpes_polaron::gcn_3f848904ab0d4b48</title>
<polygon fill="#ddffdd" stroke="#44bb44" points="1111.25,-485.5 904.75,-485.5 904.75,-449.5 1111.25,-449.5 1111.25,-485.5"/>
<text xml:space="preserve" text-anchor="middle" x="1008" y="-470.75" font-family="Helvetica,sans-Serif" font-size="10.00">Thermal disorder renormalizes masses</text>
<text xml:space="preserve" text-anchor="middle" x="1008" y="-458" font-family="Helvetica,sans-Serif" font-size="10.00">(0.80)</text>
</g>
<!-- strat_12 -->
<g id="node40" class="node">
<title>strat_12</title>
<ellipse fill="#fff9c4" stroke="#f9a825" cx="1008" cy="-395.5" rx="32.28" ry="18"/>
<text xml:space="preserve" text-anchor="middle" x="1008" y="-392.38" font-family="Helvetica,sans-Serif" font-size="10.00">support</text>
</g>
<!-- github:perovskite_arpes_polaron::gcn_3f848904ab0d4b48&#45;&gt;strat_12 -->
<g id="edge34" class="edge">
<title>github:perovskite_arpes_polaron::gcn_3f848904ab0d4b48&#45;&gt;strat_12</title>
<path fill="none" stroke="black" d="M1008,-449.2C1008,-441.91 1008,-433.23 1008,-425.04"/>
<polygon fill="black" stroke="black" points="1011.5,-425.12 1008,-415.12 1004.5,-425.12 1011.5,-425.12"/>
</g>
<!-- github:perovskite_arpes_polaron::gcn_00749f497c204b4c -->
<g id="node35" class="node">
<title>github:perovskite_arpes_polaron::gcn_00749f497c204b4c</title>
<polygon fill="#ddeeff" stroke="#4488bb" points="906.38,-629.5 679.62,-629.5 679.62,-593.5 906.38,-593.5 906.38,-629.5"/>
<text xml:space="preserve" text-anchor="middle" x="793" y="-614.75" font-family="Helvetica,sans-Serif" font-size="10.00">Representative snapshot mass assumption</text>
<text xml:space="preserve" text-anchor="middle" x="793" y="-602" font-family="Helvetica,sans-Serif" font-size="10.00">(0.72 → 0.74)</text>
</g>
<!-- strat_5 -->
<g id="node39" class="node">
<title>strat_5</title>
<ellipse fill="#fff9c4" stroke="#f9a825" cx="1008" cy="-539.5" rx="39.16" ry="18"/>
<text xml:space="preserve" text-anchor="middle" x="1008" y="-536.38" font-family="Helvetica,sans-Serif" font-size="10.00">deduction</text>
</g>
<!-- github:perovskite_arpes_polaron::gcn_00749f497c204b4c&#45;&gt;strat_5 -->
<g id="edge15" class="edge">
<title>github:perovskite_arpes_polaron::gcn_00749f497c204b4c&#45;&gt;strat_5</title>
<path fill="none" stroke="black" d="M846.7,-593.02C883.62,-580.99 931.96,-565.26 966.06,-554.16"/>
<polygon fill="black" stroke="black" points="966.73,-557.62 975.16,-551.19 964.56,-550.96 966.73,-557.62"/>
</g>
<!-- github:perovskite_arpes_polaron::gcn_869be47d79c54464 -->
<g id="node36" class="node">
<title>github:perovskite_arpes_polaron::gcn_869be47d79c54464</title>
<polygon fill="#ddeeff" stroke="#4488bb" points="1111.12,-629.5 924.88,-629.5 924.88,-593.5 1111.12,-593.5 1111.12,-629.5"/>
<text xml:space="preserve" text-anchor="middle" x="1018" y="-614.75" font-family="Helvetica,sans-Serif" font-size="10.00">Mass change attributed to disorder</text>
<text xml:space="preserve" text-anchor="middle" x="1018" y="-602" font-family="Helvetica,sans-Serif" font-size="10.00">(0.72 → 0.74)</text>
</g>
<!-- github:perovskite_arpes_polaron::gcn_869be47d79c54464&#45;&gt;strat_5 -->
<g id="edge16" class="edge">
<title>github:perovskite_arpes_polaron::gcn_869be47d79c54464&#45;&gt;strat_5</title>
<path fill="none" stroke="black" d="M1015.53,-593.2C1014.47,-585.82 1013.22,-577.02 1012.04,-568.75"/>
<polygon fill="black" stroke="black" points="1015.54,-568.51 1010.66,-559.1 1008.61,-569.5 1015.54,-568.51"/>
</g>
<!-- strat_3&#45;&gt;github:perovskite_arpes_polaron::gcn_e4a5cac31481497c -->
<g id="edge12" class="edge">
<title>strat_3&#45;&gt;github:perovskite_arpes_polaron::gcn_e4a5cac31481497c</title>
<path fill="none" stroke="black" d="M523.12,-389.42C600.97,-378.75 783.79,-353.71 901.37,-337.6"/>
<polygon fill="black" stroke="black" points="901.61,-341.11 911.04,-336.28 900.66,-334.17 901.61,-341.11"/>
</g>
<!-- strat_4&#45;&gt;github:perovskite_arpes_polaron::gcn_78dd3a5f6fb84289 -->
<g id="edge14" class="edge">
<title>strat_4&#45;&gt;github:perovskite_arpes_polaron::gcn_78dd3a5f6fb84289</title>
<path fill="none" stroke="black" d="M701.26,-524.33C715.85,-515.05 735.27,-502.69 752.13,-491.96"/>
<polygon fill="black" stroke="black" points="753.87,-495 760.43,-486.68 750.11,-489.1 753.87,-495"/>
</g>
<!-- strat_5&#45;&gt;github:perovskite_arpes_polaron::gcn_3f848904ab0d4b48 -->
<g id="edge17" class="edge">
<title>strat_5&#45;&gt;github:perovskite_arpes_polaron::gcn_3f848904ab0d4b48</title>
<path fill="none" stroke="black" d="M1008,-521.2C1008,-513.91 1008,-505.23 1008,-497.04"/>
<polygon fill="black" stroke="black" points="1011.5,-497.12 1008,-487.12 1004.5,-497.12 1011.5,-497.12"/>
</g>
<!-- strat_12&#45;&gt;github:perovskite_arpes_polaron::gcn_e4a5cac31481497c -->
<g id="edge35" class="edge">
<title>strat_12&#45;&gt;github:perovskite_arpes_polaron::gcn_e4a5cac31481497c</title>
<path fill="none" stroke="black" d="M1008,-377.19C1008,-369.52 1008,-360.29 1008,-351.64"/>
<polygon fill="black" stroke="black" points="1011.5,-351.91 1008,-341.91 1004.5,-351.91 1011.5,-351.91"/>
</g>
<!-- github:perovskite_arpes_polaron::arpes_polaron_signature_vs_gw_no_polaron -->
<g id="node41" class="node">
<title>github:perovskite_arpes_polaron::arpes_polaron_signature_vs_gw_no_polaron</title>
<polygon fill="#ddffdd" stroke="#44bb44" points="2461.38,-196 2234.62,-196 2234.62,-160 2461.38,-160 2461.38,-196"/>
<text xml:space="preserve" text-anchor="middle" x="2348" y="-181.25" font-family="Helvetica,sans-Serif" font-size="10.00">ARPES polaron signature vs G0W0 baseline</text>
<text xml:space="preserve" text-anchor="middle" x="2348" y="-168.5" font-family="Helvetica,sans-Serif" font-size="10.00">(0.85 → 1.00)</text>
</g>
<!-- strat_9&#45;&gt;github:perovskite_arpes_polaron::gcn_1544d55444d743c8 -->
<g id="edge29" class="edge">
<title>strat_9&#45;&gt;github:perovskite_arpes_polaron::gcn_1544d55444d743c8</title>
<path fill="none" stroke="black" d="M1075.49,-241.24C1111.77,-231.36 1175.89,-213.89 1227,-199.97"/>
<polygon fill="black" stroke="black" points="1227.83,-203.37 1236.56,-197.37 1225.99,-196.62 1227.83,-203.37"/>
</g>
<!-- oper_0&#45;&gt;github:perovskite_arpes_polaron::arpes_polaron_signature_vs_gw_no_polaron -->
<g id="edge38" class="edge">
<title>oper_0&#45;&gt;github:perovskite_arpes_polaron::arpes_polaron_signature_vs_gw_no_polaron</title>
<path fill="none" stroke="black" d="M2348,-231.7C2348,-220.85 2348,-206.92 2348,-196.1"/>
</g>
</g>
</svg>
