<?xml version="1.0" encoding="UTF-8" standalone="no"?>
<!DOCTYPE svg PUBLIC "-//W3C//DTD SVG 1.1//EN"
 "http://www.w3.org/Graphics/SVG/1.1/DTD/svg11.dtd">
<!-- Generated by graphviz version 14.1.5 (20260411.2331)
 -->
<!-- Title: starmap Pages: 1 -->
<svg width="3095pt" height="805pt"
 viewBox="0.00 0.00 3095.00 805.00" xmlns="http://www.w3.org/2000/svg" xmlns:xlink="http://www.w3.org/1999/xlink">
<g id="graph0" class="graph" transform="scale(1 1) rotate(0) translate(4 800.5)">
<title>starmap</title>
<polygon fill="white" stroke="none" points="-4,4 -4,-800.5 3091,-800.5 3091,4 -4,4"/>
<g id="clust1" class="cluster">
<title>cluster_paper_puppin2020</title>
<path fill="#fafafa" stroke="#999999" d="M970,-136C970,-136 1948,-136 1948,-136 1954,-136 1960,-142 1960,-148 1960,-148 1960,-631 1960,-631 1960,-637 1954,-643 1948,-643 1948,-643 970,-643 970,-643 964,-643 958,-637 958,-631 958,-631 958,-148 958,-148 958,-142 964,-136 970,-136"/>
<text xml:space="preserve" text-anchor="middle" x="1459" y="-628.55" font-family="Times,serif" font-size="11.00">paper_puppin2020</text>
</g>
<g id="clust2" class="cluster">
<title>cluster_paper_sajedi2022</title>
<path fill="#fafafa" stroke="#999999" d="M20,-136C20,-136 938,-136 938,-136 944,-136 950,-142 950,-148 950,-148 950,-485.5 950,-485.5 950,-491.5 944,-497.5 938,-497.5 938,-497.5 20,-497.5 20,-497.5 14,-497.5 8,-491.5 8,-485.5 8,-485.5 8,-148 8,-148 8,-142 14,-136 20,-136"/>
<text xml:space="preserve" text-anchor="middle" x="479" y="-483.05" font-family="Times,serif" font-size="11.00">paper_sajedi2022</text>
</g>
<g id="clust3" class="cluster">
<title>cluster_paper_zhao2025</title>
<path fill="#fafafa" stroke="#999999" d="M1980,-424C1980,-424 3067,-424 3067,-424 3073,-424 3079,-430 3079,-436 3079,-436 3079,-776.5 3079,-776.5 3079,-782.5 3073,-788.5 3067,-788.5 3067,-788.5 1980,-788.5 1980,-788.5 1974,-788.5 1968,-782.5 1968,-776.5 1968,-776.5 1968,-436 1968,-436 1968,-430 1974,-424 1980,-424"/>
<text xml:space="preserve" text-anchor="middle" x="2523.5" y="-774.05" font-family="Times,serif" font-size="11.00">paper_zhao2025</text>
</g>
<!-- github:perovskite_arpes_polaron::gcn_1544d55444d743c8 -->
<g id="node1" class="node">
<title>github:perovskite_arpes_polaron::gcn_1544d55444d743c8</title>
<polygon fill="#d4edda" stroke="#28a745" stroke-width="2" points="1756.12,-324 1587.88,-324 1587.88,-288 1756.12,-288 1756.12,-324"/>
<text xml:space="preserve" text-anchor="middle" x="1672" y="-309.25" font-family="Helvetica,sans-Serif" font-size="10.00">★ ARPES mass 0.26 in CsPbBr3</text>
<text xml:space="preserve" text-anchor="middle" x="1672" y="-296.5" font-family="Helvetica,sans-Serif" font-size="10.00">(0.81)</text>
</g>
<!-- strat_13 -->
<g id="node14" class="node">
<title>strat_13</title>
<ellipse fill="#fff9c4" stroke="#f9a825" cx="1177" cy="-234" rx="32.28" ry="18"/>
<text xml:space="preserve" text-anchor="middle" x="1177" y="-230.88" font-family="Helvetica,sans-Serif" font-size="10.00">support</text>
</g>
<!-- github:perovskite_arpes_polaron::gcn_1544d55444d743c8&#45;&gt;strat_13 -->
<g id="edge36" class="edge">
<title>github:perovskite_arpes_polaron::gcn_1544d55444d743c8&#45;&gt;strat_13</title>
<path fill="none" stroke="black" d="M1586.91,-292.97C1480.07,-277.86 1300.95,-252.53 1219.56,-241.02"/>
<polygon fill="black" stroke="black" points="1220.17,-237.57 1209.78,-239.64 1219.19,-244.5 1220.17,-237.57"/>
</g>
<!-- github:perovskite_arpes_polaron::gcn_2e9e6e30a5d7431c -->
<g id="node2" class="node">
<title>github:perovskite_arpes_polaron::gcn_2e9e6e30a5d7431c</title>
<polygon fill="#ddeeff" stroke="#4488bb" points="1770.38,-468 1573.62,-468 1573.62,-432 1770.38,-432 1770.38,-468"/>
<text xml:space="preserve" text-anchor="middle" x="1672" y="-453.25" font-family="Helvetica,sans-Serif" font-size="10.00">Parabolic ARPES mass fit assumption</text>
<text xml:space="preserve" text-anchor="middle" x="1672" y="-440.5" font-family="Helvetica,sans-Serif" font-size="10.00">(0.82 → 0.83)</text>
</g>
<!-- strat_0 -->
<g id="node10" class="node">
<title>strat_0</title>
<ellipse fill="#fff9c4" stroke="#f9a825" cx="1672" cy="-378" rx="39.16" ry="18"/>
<text xml:space="preserve" text-anchor="middle" x="1672" y="-374.88" font-family="Helvetica,sans-Serif" font-size="10.00">deduction</text>
</g>
<!-- github:perovskite_arpes_polaron::gcn_2e9e6e30a5d7431c&#45;&gt;strat_0 -->
<g id="edge1" class="edge">
<title>github:perovskite_arpes_polaron::gcn_2e9e6e30a5d7431c&#45;&gt;strat_0</title>
<path fill="none" stroke="black" d="M1672,-431.7C1672,-424.41 1672,-415.73 1672,-407.54"/>
<polygon fill="black" stroke="black" points="1675.5,-407.62 1672,-397.62 1668.5,-407.62 1675.5,-407.62"/>
</g>
<!-- github:perovskite_arpes_polaron::gcn_0a71cf6357114b76 -->
<g id="node3" class="node">
<title>github:perovskite_arpes_polaron::gcn_0a71cf6357114b76</title>
<polygon fill="#ddeeff" stroke="#4488bb" points="1951.88,-468 1788.12,-468 1788.12,-432 1951.88,-432 1951.88,-468"/>
<text xml:space="preserve" text-anchor="middle" x="1870" y="-453.25" font-family="Helvetica,sans-Serif" font-size="10.00">EDC peak defines VBM energy</text>
<text xml:space="preserve" text-anchor="middle" x="1870" y="-440.5" font-family="Helvetica,sans-Serif" font-size="10.00">(0.80 → 0.81)</text>
</g>
<!-- github:perovskite_arpes_polaron::gcn_0a71cf6357114b76&#45;&gt;strat_0 -->
<g id="edge2" class="edge">
<title>github:perovskite_arpes_polaron::gcn_0a71cf6357114b76&#45;&gt;strat_0</title>
<path fill="none" stroke="black" d="M1820.55,-431.52C1787.35,-419.78 1744.14,-404.5 1712.88,-393.45"/>
<polygon fill="black" stroke="black" points="1714.39,-390.27 1703.79,-390.24 1712.05,-396.87 1714.39,-390.27"/>
</g>
<!-- github:perovskite_arpes_polaron::gcn_e24a3d64aa604555 -->
<g id="node4" class="node">
<title>github:perovskite_arpes_polaron::gcn_e24a3d64aa604555</title>
<polygon fill="#ddeeff" stroke="#4488bb" points="1555.5,-468 1398.5,-468 1398.5,-432 1555.5,-432 1555.5,-468"/>
<text xml:space="preserve" text-anchor="middle" x="1477" y="-453.25" font-family="Helvetica,sans-Serif" font-size="10.00">ARPES dispersion is bulk&#45;like</text>
<text xml:space="preserve" text-anchor="middle" x="1477" y="-440.5" font-family="Helvetica,sans-Serif" font-size="10.00">(0.84 → 0.85)</text>
</g>
<!-- github:perovskite_arpes_polaron::gcn_e24a3d64aa604555&#45;&gt;strat_0 -->
<g id="edge3" class="edge">
<title>github:perovskite_arpes_polaron::gcn_e24a3d64aa604555&#45;&gt;strat_0</title>
<path fill="none" stroke="black" d="M1525.7,-431.52C1558.16,-419.87 1600.32,-404.73 1631.05,-393.7"/>
<polygon fill="black" stroke="black" points="1632.15,-397.02 1640.38,-390.35 1629.79,-390.43 1632.15,-397.02"/>
</g>
<!-- github:perovskite_arpes_polaron::gcn_5e907da32c114d34 -->
<g id="node5" class="node">
<title>github:perovskite_arpes_polaron::gcn_5e907da32c114d34</title>
<polygon fill="#ddffdd" stroke="#44bb44" points="1287.75,-324 1066.25,-324 1066.25,-288 1287.75,-288 1287.75,-324"/>
<text xml:space="preserve" text-anchor="middle" x="1177" y="-309.25" font-family="Helvetica,sans-Serif" font-size="10.00">Feynman polaron reproduces ARPES mass</text>
<text xml:space="preserve" text-anchor="middle" x="1177" y="-296.5" font-family="Helvetica,sans-Serif" font-size="10.00">(0.95)</text>
</g>
<!-- github:perovskite_arpes_polaron::gcn_5e907da32c114d34&#45;&gt;strat_13 -->
<g id="edge37" class="edge">
<title>github:perovskite_arpes_polaron::gcn_5e907da32c114d34&#45;&gt;strat_13</title>
<path fill="none" stroke="black" d="M1177,-287.7C1177,-280.41 1177,-271.73 1177,-263.54"/>
<polygon fill="black" stroke="black" points="1180.5,-263.62 1177,-253.62 1173.5,-263.62 1180.5,-263.62"/>
</g>
<!-- github:perovskite_arpes_polaron::gcn_943f1f964b7a4374 -->
<g id="node6" class="node">
<title>github:perovskite_arpes_polaron::gcn_943f1f964b7a4374</title>
<polygon fill="#ddeeff" stroke="#4488bb" points="1380.5,-468 1175.5,-468 1175.5,-432 1380.5,-432 1380.5,-468"/>
<text xml:space="preserve" text-anchor="middle" x="1278" y="-453.25" font-family="Helvetica,sans-Serif" font-size="10.00">Ab initio Fröhlich workflow assumption</text>
<text xml:space="preserve" text-anchor="middle" x="1278" y="-440.5" font-family="Helvetica,sans-Serif" font-size="10.00">(0.72 → 0.80)</text>
</g>
<!-- strat_1 -->
<g id="node11" class="node">
<title>strat_1</title>
<ellipse fill="#fff9c4" stroke="#f9a825" cx="1228" cy="-378" rx="39.16" ry="18"/>
<text xml:space="preserve" text-anchor="middle" x="1228" y="-374.88" font-family="Helvetica,sans-Serif" font-size="10.00">deduction</text>
</g>
<!-- github:perovskite_arpes_polaron::gcn_943f1f964b7a4374&#45;&gt;strat_1 -->
<g id="edge5" class="edge">
<title>github:perovskite_arpes_polaron::gcn_943f1f964b7a4374&#45;&gt;strat_1</title>
<path fill="none" stroke="black" d="M1265.64,-431.7C1259.86,-423.61 1252.87,-413.81 1246.48,-404.87"/>
<polygon fill="black" stroke="black" points="1249.41,-402.96 1240.75,-396.85 1243.72,-407.03 1249.41,-402.96"/>
</g>
<!-- github:perovskite_arpes_polaron::gcn_ffcf3464e99c47ed -->
<g id="node7" class="node">
<title>github:perovskite_arpes_polaron::gcn_ffcf3464e99c47ed</title>
<polygon fill="#ddffdd" stroke="#44bb44" points="1157.75,-468 966.25,-468 966.25,-432 1157.75,-432 1157.75,-468"/>
<text xml:space="preserve" text-anchor="middle" x="1062" y="-453.25" font-family="Helvetica,sans-Serif" font-size="10.00">Polaron mass calculation gives 0.24</text>
<text xml:space="preserve" text-anchor="middle" x="1062" y="-440.5" font-family="Helvetica,sans-Serif" font-size="10.00">(0.88)</text>
</g>
<!-- strat_11 -->
<g id="node13" class="node">
<title>strat_11</title>
<ellipse fill="#fff9c4" stroke="#f9a825" cx="1100" cy="-378" rx="32.28" ry="18"/>
<text xml:space="preserve" text-anchor="middle" x="1100" y="-374.88" font-family="Helvetica,sans-Serif" font-size="10.00">support</text>
</g>
<!-- github:perovskite_arpes_polaron::gcn_ffcf3464e99c47ed&#45;&gt;strat_11 -->
<g id="edge32" class="edge">
<title>github:perovskite_arpes_polaron::gcn_ffcf3464e99c47ed&#45;&gt;strat_11</title>
<path fill="none" stroke="black" d="M1071.39,-431.7C1075.64,-423.87 1080.76,-414.44 1085.49,-405.73"/>
<polygon fill="black" stroke="black" points="1088.56,-407.41 1090.25,-396.95 1082.41,-404.07 1088.56,-407.41"/>
</g>
<!-- github:perovskite_arpes_polaron::gcn_2b322b6a88d742ba -->
<g id="node8" class="node">
<title>github:perovskite_arpes_polaron::gcn_2b322b6a88d742ba</title>
<polygon fill="#ddeeff" stroke="#4488bb" points="1160.25,-613.5 965.75,-613.5 965.75,-577.5 1160.25,-577.5 1160.25,-613.5"/>
<text xml:space="preserve" text-anchor="middle" x="1063" y="-598.75" font-family="Helvetica,sans-Serif" font-size="10.00">Feynman mass formula is valid here</text>
<text xml:space="preserve" text-anchor="middle" x="1063" y="-586" font-family="Helvetica,sans-Serif" font-size="10.00">(0.72 → 0.75)</text>
</g>
<!-- strat_2 -->
<g id="node12" class="node">
<title>strat_2</title>
<ellipse fill="#fff9c4" stroke="#f9a825" cx="1062" cy="-523.5" rx="39.16" ry="18"/>
<text xml:space="preserve" text-anchor="middle" x="1062" y="-520.38" font-family="Helvetica,sans-Serif" font-size="10.00">deduction</text>
</g>
<!-- github:perovskite_arpes_polaron::gcn_2b322b6a88d742ba&#45;&gt;strat_2 -->
<g id="edge7" class="edge">
<title>github:perovskite_arpes_polaron::gcn_2b322b6a88d742ba&#45;&gt;strat_2</title>
<path fill="none" stroke="black" d="M1062.75,-577.2C1062.65,-569.91 1062.52,-561.23 1062.41,-553.04"/>
<polygon fill="black" stroke="black" points="1065.91,-553.07 1062.27,-543.12 1058.91,-553.17 1065.91,-553.07"/>
</g>
<!-- github:perovskite_arpes_polaron::gcn_4ad259a13be9454a -->
<g id="node9" class="node">
<title>github:perovskite_arpes_polaron::gcn_4ad259a13be9454a</title>
<polygon fill="#ddffdd" stroke="#44bb44" points="1206.75,-180 1027.25,-180 1027.25,-144 1206.75,-144 1206.75,-180"/>
<text xml:space="preserve" text-anchor="middle" x="1117" y="-165.25" font-family="Helvetica,sans-Serif" font-size="10.00">ARPES mass as polaron signature</text>
<text xml:space="preserve" text-anchor="middle" x="1117" y="-152.5" font-family="Helvetica,sans-Serif" font-size="10.00">(0.68 → 0.33)</text>
</g>
<!-- oper_0 -->
<g id="node44" class="node">
<title>oper_0</title>
<polygon fill="#ffebee" stroke="#c62828" points="1055.29,-90 1023.15,-108 958.85,-108 926.71,-90 958.85,-72 1023.15,-72 1055.29,-90"/>
<text xml:space="preserve" text-anchor="middle" x="991" y="-86.88" font-family="Helvetica,sans-Serif" font-size="10.00">⊗ contradiction</text>
</g>
<!-- github:perovskite_arpes_polaron::gcn_4ad259a13be9454a&#45;&gt;oper_0 -->
<g id="edge39" class="edge">
<title>github:perovskite_arpes_polaron::gcn_4ad259a13be9454a&#45;&gt;oper_0</title>
<path fill="none" stroke="black" d="M1085.53,-143.52C1066.14,-132.74 1041.38,-118.99 1022.07,-108.26"/>
</g>
<!-- strat_0&#45;&gt;github:perovskite_arpes_polaron::gcn_1544d55444d743c8 -->
<g id="edge4" class="edge">
<title>strat_0&#45;&gt;github:perovskite_arpes_polaron::gcn_1544d55444d743c8</title>
<path fill="none" stroke="black" d="M1672,-359.7C1672,-352.52 1672,-343.99 1672,-335.9"/>
<polygon fill="black" stroke="black" points="1675.5,-336.1 1672,-326.1 1668.5,-336.1 1675.5,-336.1"/>
</g>
<!-- strat_1&#45;&gt;github:perovskite_arpes_polaron::gcn_5e907da32c114d34 -->
<g id="edge6" class="edge">
<title>strat_1&#45;&gt;github:perovskite_arpes_polaron::gcn_5e907da32c114d34</title>
<path fill="none" stroke="black" d="M1215.91,-360.41C1210.05,-352.37 1202.88,-342.51 1196.29,-333.47"/>
<polygon fill="black" stroke="black" points="1199.32,-331.69 1190.6,-325.67 1193.66,-335.81 1199.32,-331.69"/>
</g>
<!-- strat_2&#45;&gt;github:perovskite_arpes_polaron::gcn_ffcf3464e99c47ed -->
<g id="edge8" class="edge">
<title>strat_2&#45;&gt;github:perovskite_arpes_polaron::gcn_ffcf3464e99c47ed</title>
<path fill="none" stroke="black" d="M1062,-505.19C1062,-497.52 1062,-488.29 1062,-479.64"/>
<polygon fill="black" stroke="black" points="1065.5,-479.91 1062,-469.91 1058.5,-479.91 1065.5,-479.91"/>
</g>
<!-- strat_11&#45;&gt;github:perovskite_arpes_polaron::gcn_5e907da32c114d34 -->
<g id="edge33" class="edge">
<title>strat_11&#45;&gt;github:perovskite_arpes_polaron::gcn_5e907da32c114d34</title>
<path fill="none" stroke="black" d="M1116.33,-362.15C1126.04,-353.33 1138.6,-341.91 1149.78,-331.75"/>
<polygon fill="black" stroke="black" points="1151.81,-334.63 1156.86,-325.31 1147.1,-329.45 1151.81,-334.63"/>
</g>
<!-- strat_13&#45;&gt;github:perovskite_arpes_polaron::gcn_4ad259a13be9454a -->
<g id="edge38" class="edge">
<title>strat_13&#45;&gt;github:perovskite_arpes_polaron::gcn_4ad259a13be9454a</title>
<path fill="none" stroke="black" d="M1163.68,-217.46C1156.57,-209.16 1147.61,-198.72 1139.46,-189.2"/>
<polygon fill="black" stroke="black" points="1142.12,-186.92 1132.95,-181.61 1136.8,-191.48 1142.12,-186.92"/>
</g>
<!-- github:perovskite_arpes_polaron::gcn_4d0e277c6d2c4cdc -->
<g id="node15" class="node">
<title>github:perovskite_arpes_polaron::gcn_4d0e277c6d2c4cdc</title>
<polygon fill="#ddffdd" stroke="#44bb44" points="259.88,-324 120.12,-324 120.12,-288 259.88,-288 259.88,-324"/>
<text xml:space="preserve" text-anchor="middle" x="190" y="-309.25" font-family="Helvetica,sans-Serif" font-size="10.00">Sajedi ARPES mass 0.203</text>
<text xml:space="preserve" text-anchor="middle" x="190" y="-296.5" font-family="Helvetica,sans-Serif" font-size="10.00">(0.74)</text>
</g>
<!-- github:perovskite_arpes_polaron::gcn_e17b013445234bfa -->
<g id="node16" class="node">
<title>github:perovskite_arpes_polaron::gcn_e17b013445234bfa</title>
<polygon fill="#ddeeff" stroke="#4488bb" points="182.38,-468 15.62,-468 15.62,-432 182.38,-432 182.38,-468"/>
<text xml:space="preserve" text-anchor="middle" x="99" y="-453.25" font-family="Helvetica,sans-Serif" font-size="10.00">Photon energy maps to R point</text>
<text xml:space="preserve" text-anchor="middle" x="99" y="-440.5" font-family="Helvetica,sans-Serif" font-size="10.00">(0.80 → 0.80)</text>
</g>
<!-- strat_6 -->
<g id="node25" class="node">
<title>strat_6</title>
<ellipse fill="#fff9c4" stroke="#f9a825" cx="238" cy="-378" rx="39.16" ry="18"/>
<text xml:space="preserve" text-anchor="middle" x="238" y="-374.88" font-family="Helvetica,sans-Serif" font-size="10.00">deduction</text>
</g>
<!-- github:perovskite_arpes_polaron::gcn_e17b013445234bfa&#45;&gt;strat_6 -->
<g id="edge18" class="edge">
<title>github:perovskite_arpes_polaron::gcn_e17b013445234bfa&#45;&gt;strat_6</title>
<path fill="none" stroke="black" d="M133.72,-431.52C154.63,-420.99 181.2,-407.6 202.29,-396.98"/>
<polygon fill="black" stroke="black" points="203.75,-400.17 211.1,-392.55 200.6,-393.92 203.75,-400.17"/>
</g>
<!-- github:perovskite_arpes_polaron::gcn_ccc6a5bf10864de7 -->
<g id="node17" class="node">
<title>github:perovskite_arpes_polaron::gcn_ccc6a5bf10864de7</title>
<polygon fill="#ddeeff" stroke="#4488bb" points="372,-468 200,-468 200,-432 372,-432 372,-468"/>
<text xml:space="preserve" text-anchor="middle" x="286" y="-453.25" font-family="Helvetica,sans-Serif" font-size="10.00">Quadratic fit extracts hole mass</text>
<text xml:space="preserve" text-anchor="middle" x="286" y="-440.5" font-family="Helvetica,sans-Serif" font-size="10.00">(0.80 → 0.80)</text>
</g>
<!-- github:perovskite_arpes_polaron::gcn_ccc6a5bf10864de7&#45;&gt;strat_6 -->
<g id="edge19" class="edge">
<title>github:perovskite_arpes_polaron::gcn_ccc6a5bf10864de7&#45;&gt;strat_6</title>
<path fill="none" stroke="black" d="M274.13,-431.7C268.59,-423.61 261.87,-413.81 255.74,-404.87"/>
<polygon fill="black" stroke="black" points="258.8,-403.14 250.25,-396.87 253.02,-407.1 258.8,-403.14"/>
</g>
<!-- github:perovskite_arpes_polaron::gcn_3e860bd7f76e4767 -->
<g id="node18" class="node">
<title>github:perovskite_arpes_polaron::gcn_3e860bd7f76e4767</title>
<polygon fill="#ddeeff" stroke="#4488bb" points="571.88,-468 390.12,-468 390.12,-432 571.88,-432 571.88,-468"/>
<text xml:space="preserve" text-anchor="middle" x="481" y="-453.25" font-family="Helvetica,sans-Serif" font-size="10.00">ARPES mass uncertainty estimate</text>
<text xml:space="preserve" text-anchor="middle" x="481" y="-440.5" font-family="Helvetica,sans-Serif" font-size="10.00">(0.80 → 0.80)</text>
</g>
<!-- github:perovskite_arpes_polaron::gcn_3e860bd7f76e4767&#45;&gt;strat_6 -->
<g id="edge20" class="edge">
<title>github:perovskite_arpes_polaron::gcn_3e860bd7f76e4767&#45;&gt;strat_6</title>
<path fill="none" stroke="black" d="M420.31,-431.52C377.19,-419.1 320.31,-402.71 281.62,-391.57"/>
<polygon fill="black" stroke="black" points="282.76,-388.25 272.19,-388.85 280.83,-394.98 282.76,-388.25"/>
</g>
<!-- github:perovskite_arpes_polaron::gcn_8c3c520295d7488c -->
<g id="node19" class="node">
<title>github:perovskite_arpes_polaron::gcn_8c3c520295d7488c</title>
<polygon fill="#ddffdd" stroke="#44bb44" points="448.25,-324 277.75,-324 277.75,-288 448.25,-288 448.25,-324"/>
<text xml:space="preserve" text-anchor="middle" x="363" y="-309.25" font-family="Helvetica,sans-Serif" font-size="10.00">G0W0 bare masses for CsPbBr3</text>
<text xml:space="preserve" text-anchor="middle" x="363" y="-296.5" font-family="Helvetica,sans-Serif" font-size="10.00">(0.70)</text>
</g>
<!-- strat_10 -->
<g id="node28" class="node">
<title>strat_10</title>
<ellipse fill="#fff9c4" stroke="#f9a825" cx="484" cy="-234" rx="32.28" ry="18"/>
<text xml:space="preserve" text-anchor="middle" x="484" y="-230.88" font-family="Helvetica,sans-Serif" font-size="10.00">support</text>
</g>
<!-- github:perovskite_arpes_polaron::gcn_8c3c520295d7488c&#45;&gt;strat_10 -->
<g id="edge30" class="edge">
<title>github:perovskite_arpes_polaron::gcn_8c3c520295d7488c&#45;&gt;strat_10</title>
<path fill="none" stroke="black" d="M393.22,-287.52C411.21,-277.11 434.01,-263.92 452.26,-253.36"/>
<polygon fill="black" stroke="black" points="453.93,-256.44 460.83,-248.4 450.42,-250.38 453.93,-256.44"/>
</g>
<!-- github:perovskite_arpes_polaron::gcn_ec768b9675814820 -->
<g id="node20" class="node">
<title>github:perovskite_arpes_polaron::gcn_ec768b9675814820</title>
<polygon fill="#ddeeff" stroke="#4488bb" points="747.88,-468 590.12,-468 590.12,-432 747.88,-432 747.88,-468"/>
<text xml:space="preserve" text-anchor="middle" x="669" y="-453.25" font-family="Helvetica,sans-Serif" font-size="10.00">Valence&#45;only Wannier caveat</text>
<text xml:space="preserve" text-anchor="middle" x="669" y="-440.5" font-family="Helvetica,sans-Serif" font-size="10.00">(0.80 → 0.76)</text>
</g>
<!-- strat_7 -->
<g id="node26" class="node">
<title>strat_7</title>
<ellipse fill="#fff9c4" stroke="#f9a825" cx="669" cy="-378" rx="39.16" ry="18"/>
<text xml:space="preserve" text-anchor="middle" x="669" y="-374.88" font-family="Helvetica,sans-Serif" font-size="10.00">deduction</text>
</g>
<!-- github:perovskite_arpes_polaron::gcn_ec768b9675814820&#45;&gt;strat_7 -->
<g id="edge22" class="edge">
<title>github:perovskite_arpes_polaron::gcn_ec768b9675814820&#45;&gt;strat_7</title>
<path fill="none" stroke="black" d="M669,-431.7C669,-424.41 669,-415.73 669,-407.54"/>
<polygon fill="black" stroke="black" points="672.5,-407.62 669,-397.62 665.5,-407.62 672.5,-407.62"/>
</g>
<!-- github:perovskite_arpes_polaron::gcn_5868b15c687043a9 -->
<g id="node21" class="node">
<title>github:perovskite_arpes_polaron::gcn_5868b15c687043a9</title>
<polygon fill="#ddeeff" stroke="#4488bb" points="941.88,-468 766.12,-468 766.12,-432 941.88,-432 941.88,-468"/>
<text xml:space="preserve" text-anchor="middle" x="854" y="-453.25" font-family="Helvetica,sans-Serif" font-size="10.00">G0W0 method sensitivity caveat</text>
<text xml:space="preserve" text-anchor="middle" x="854" y="-440.5" font-family="Helvetica,sans-Serif" font-size="10.00">(0.80 → 0.76)</text>
</g>
<!-- github:perovskite_arpes_polaron::gcn_5868b15c687043a9&#45;&gt;strat_7 -->
<g id="edge23" class="edge">
<title>github:perovskite_arpes_polaron::gcn_5868b15c687043a9&#45;&gt;strat_7</title>
<path fill="none" stroke="black" d="M807.79,-431.52C777.43,-420.03 738.09,-405.14 709.05,-394.15"/>
<polygon fill="black" stroke="black" points="710.47,-390.95 699.88,-390.69 708,-397.5 710.47,-390.95"/>
</g>
<!-- github:perovskite_arpes_polaron::gcn_762777de8c644c17 -->
<g id="node22" class="node">
<title>github:perovskite_arpes_polaron::gcn_762777de8c644c17</title>
<polygon fill="#ddffdd" stroke="#44bb44" points="830.88,-180 559.12,-180 559.12,-144 830.88,-144 830.88,-180"/>
<text xml:space="preserve" text-anchor="middle" x="695" y="-165.25" font-family="Helvetica,sans-Serif" font-size="10.00">G0W0 explains ARPES without extra Fröhlich renorm</text>
<text xml:space="preserve" text-anchor="middle" x="695" y="-152.5" font-family="Helvetica,sans-Serif" font-size="10.00">(0.64)</text>
</g>
<!-- github:perovskite_arpes_polaron::gcn_762777de8c644c17&#45;&gt;oper_0 -->
<g id="edge40" class="edge">
<title>github:perovskite_arpes_polaron::gcn_762777de8c644c17&#45;&gt;oper_0</title>
<path fill="none" stroke="black" d="M768.93,-143.52C824.75,-130.32 899.52,-112.63 946.47,-101.53"/>
</g>
<!-- github:perovskite_arpes_polaron::gcn_1fc9a84fbc6e4a1b -->
<g id="node23" class="node">
<title>github:perovskite_arpes_polaron::gcn_1fc9a84fbc6e4a1b</title>
<polygon fill="#ddeeff" stroke="#4488bb" points="703.25,-324 466.75,-324 466.75,-288 703.25,-288 703.25,-324"/>
<text xml:space="preserve" text-anchor="middle" x="585" y="-309.25" font-family="Helvetica,sans-Serif" font-size="10.00">Orthorhombic model comparison assumption</text>
<text xml:space="preserve" text-anchor="middle" x="585" y="-296.5" font-family="Helvetica,sans-Serif" font-size="10.00">(0.72 → 0.66)</text>
</g>
<!-- strat_8 -->
<g id="node27" class="node">
<title>strat_8</title>
<ellipse fill="#fff9c4" stroke="#f9a825" cx="695" cy="-234" rx="39.16" ry="18"/>
<text xml:space="preserve" text-anchor="middle" x="695" y="-230.88" font-family="Helvetica,sans-Serif" font-size="10.00">deduction</text>
</g>
<!-- github:perovskite_arpes_polaron::gcn_1fc9a84fbc6e4a1b&#45;&gt;strat_8 -->
<g id="edge25" class="edge">
<title>github:perovskite_arpes_polaron::gcn_1fc9a84fbc6e4a1b&#45;&gt;strat_8</title>
<path fill="none" stroke="black" d="M612.47,-287.52C627.86,-277.72 647.12,-265.47 663.17,-255.26"/>
<polygon fill="black" stroke="black" points="664.84,-258.34 671.4,-250.02 661.08,-252.43 664.84,-258.34"/>
</g>
<!-- github:perovskite_arpes_polaron::gcn_e808f6450bfc4207 -->
<g id="node24" class="node">
<title>github:perovskite_arpes_polaron::gcn_e808f6450bfc4207</title>
<polygon fill="#ddeeff" stroke="#4488bb" points="942.38,-324 721.62,-324 721.62,-288 942.38,-288 942.38,-324"/>
<text xml:space="preserve" text-anchor="middle" x="832" y="-309.25" font-family="Helvetica,sans-Serif" font-size="10.00">50 percent polaron mass would overshoot</text>
<text xml:space="preserve" text-anchor="middle" x="832" y="-296.5" font-family="Helvetica,sans-Serif" font-size="10.00">(0.80 → 0.76)</text>
</g>
<!-- github:perovskite_arpes_polaron::gcn_e808f6450bfc4207&#45;&gt;strat_8 -->
<g id="edge26" class="edge">
<title>github:perovskite_arpes_polaron::gcn_e808f6450bfc4207&#45;&gt;strat_8</title>
<path fill="none" stroke="black" d="M797.78,-287.52C777.31,-277.05 751.33,-263.78 730.61,-253.19"/>
<polygon fill="black" stroke="black" points="732.45,-250.21 721.96,-248.77 729.27,-256.44 732.45,-250.21"/>
</g>
<!-- strat_6&#45;&gt;github:perovskite_arpes_polaron::gcn_4d0e277c6d2c4cdc -->
<g id="edge21" class="edge">
<title>strat_6&#45;&gt;github:perovskite_arpes_polaron::gcn_4d0e277c6d2c4cdc</title>
<path fill="none" stroke="black" d="M226.62,-360.41C221.17,-352.45 214.5,-342.72 208.35,-333.76"/>
<polygon fill="black" stroke="black" points="211.36,-331.96 202.82,-325.7 205.59,-335.92 211.36,-331.96"/>
</g>
<!-- strat_7&#45;&gt;github:perovskite_arpes_polaron::gcn_8c3c520295d7488c -->
<g id="edge24" class="edge">
<title>strat_7&#45;&gt;github:perovskite_arpes_polaron::gcn_8c3c520295d7488c</title>
<path fill="none" stroke="black" d="M634.49,-369.11C590.2,-358.97 511.78,-341.03 450.57,-327.03"/>
<polygon fill="black" stroke="black" points="451.36,-323.62 440.83,-324.8 449.8,-330.45 451.36,-323.62"/>
</g>
<!-- strat_8&#45;&gt;github:perovskite_arpes_polaron::gcn_762777de8c644c17 -->
<g id="edge27" class="edge">
<title>strat_8&#45;&gt;github:perovskite_arpes_polaron::gcn_762777de8c644c17</title>
<path fill="none" stroke="black" d="M695,-215.7C695,-208.41 695,-199.73 695,-191.54"/>
<polygon fill="black" stroke="black" points="698.5,-191.62 695,-181.62 691.5,-191.62 698.5,-191.62"/>
</g>
<!-- strat_10&#45;&gt;github:perovskite_arpes_polaron::gcn_762777de8c644c17 -->
<g id="edge31" class="edge">
<title>strat_10&#45;&gt;github:perovskite_arpes_polaron::gcn_762777de8c644c17</title>
<path fill="none" stroke="black" d="M511.15,-223.99C541.43,-213.95 591.44,-197.36 631.66,-184.01"/>
<polygon fill="black" stroke="black" points="632.63,-187.38 641.02,-180.91 630.43,-180.73 632.63,-187.38"/>
</g>
<!-- github:perovskite_arpes_polaron::gcn_e4a5cac31481497c -->
<g id="node29" class="node">
<title>github:perovskite_arpes_polaron::gcn_e4a5cac31481497c</title>
<polygon fill="#ddffdd" stroke="#44bb44" points="2441,-468 2251,-468 2251,-432 2441,-432 2441,-468"/>
<text xml:space="preserve" text-anchor="middle" x="2346" y="-453.25" font-family="Helvetica,sans-Serif" font-size="10.00">Finite&#45;T AIMD matches ARPES mass</text>
<text xml:space="preserve" text-anchor="middle" x="2346" y="-440.5" font-family="Helvetica,sans-Serif" font-size="10.00">(0.92)</text>
</g>
<!-- strat_9 -->
<g id="node43" class="node">
<title>strat_9</title>
<ellipse fill="#fff9c4" stroke="#f9a825" cx="2173" cy="-378" rx="32.28" ry="18"/>
<text xml:space="preserve" text-anchor="middle" x="2173" y="-374.88" font-family="Helvetica,sans-Serif" font-size="10.00">support</text>
</g>
<!-- github:perovskite_arpes_polaron::gcn_e4a5cac31481497c&#45;&gt;strat_9 -->
<g id="edge28" class="edge">
<title>github:perovskite_arpes_polaron::gcn_e4a5cac31481497c&#45;&gt;strat_9</title>
<path fill="none" stroke="black" d="M2302.79,-431.52C2274.03,-419.88 2236.66,-404.76 2209.41,-393.73"/>
<polygon fill="black" stroke="black" points="2210.76,-390.5 2200.18,-390 2208.13,-396.99 2210.76,-390.5"/>
</g>
<!-- github:perovskite_arpes_polaron::gcn_c24c81b8a5fe413c -->
<g id="node30" class="node">
<title>github:perovskite_arpes_polaron::gcn_c24c81b8a5fe413c</title>
<polygon fill="#ddeeff" stroke="#4488bb" points="2230.25,-613.5 1975.75,-613.5 1975.75,-577.5 2230.25,-577.5 2230.25,-613.5"/>
<text xml:space="preserve" text-anchor="middle" x="2103" y="-598.75" font-family="Helvetica,sans-Serif" font-size="10.00">Single AIMD snapshot represents ARPES average</text>
<text xml:space="preserve" text-anchor="middle" x="2103" y="-586" font-family="Helvetica,sans-Serif" font-size="10.00">(0.72 → 0.77)</text>
</g>
<!-- strat_3 -->
<g id="node38" class="node">
<title>strat_3</title>
<ellipse fill="#fff9c4" stroke="#f9a825" cx="2346" cy="-523.5" rx="39.16" ry="18"/>
<text xml:space="preserve" text-anchor="middle" x="2346" y="-520.38" font-family="Helvetica,sans-Serif" font-size="10.00">deduction</text>
</g>
<!-- github:perovskite_arpes_polaron::gcn_c24c81b8a5fe413c&#45;&gt;strat_3 -->
<g id="edge9" class="edge">
<title>github:perovskite_arpes_polaron::gcn_c24c81b8a5fe413c&#45;&gt;strat_3</title>
<path fill="none" stroke="black" d="M2163.69,-577.02C2206.81,-564.6 2263.69,-548.21 2302.38,-537.07"/>
<polygon fill="black" stroke="black" points="2303.17,-540.48 2311.81,-534.35 2301.24,-533.75 2303.17,-540.48"/>
</g>
<!-- github:perovskite_arpes_polaron::gcn_43c66f240368417e -->
<g id="node31" class="node">
<title>github:perovskite_arpes_polaron::gcn_43c66f240368417e</title>
<polygon fill="#ddeeff" stroke="#4488bb" points="2443.25,-613.5 2248.75,-613.5 2248.75,-577.5 2443.25,-577.5 2443.25,-613.5"/>
<text xml:space="preserve" text-anchor="middle" x="2346" y="-598.75" font-family="Helvetica,sans-Serif" font-size="10.00">Bulk unfolding comparable to ARPES</text>
<text xml:space="preserve" text-anchor="middle" x="2346" y="-586" font-family="Helvetica,sans-Serif" font-size="10.00">(0.72 → 0.77)</text>
</g>
<!-- github:perovskite_arpes_polaron::gcn_43c66f240368417e&#45;&gt;strat_3 -->
<g id="edge10" class="edge">
<title>github:perovskite_arpes_polaron::gcn_43c66f240368417e&#45;&gt;strat_3</title>
<path fill="none" stroke="black" d="M2346,-577.2C2346,-569.91 2346,-561.23 2346,-553.04"/>
<polygon fill="black" stroke="black" points="2349.5,-553.12 2346,-543.12 2342.5,-553.12 2349.5,-553.12"/>
</g>
<!-- github:perovskite_arpes_polaron::gcn_1c2bf8f398f243f9 -->
<g id="node32" class="node">
<title>github:perovskite_arpes_polaron::gcn_1c2bf8f398f243f9</title>
<polygon fill="#ddeeff" stroke="#4488bb" points="2633,-613.5 2461,-613.5 2461,-577.5 2633,-577.5 2633,-613.5"/>
<text xml:space="preserve" text-anchor="middle" x="2547" y="-598.75" font-family="Helvetica,sans-Serif" font-size="10.00">PBE AIMD sampling is adequate</text>
<text xml:space="preserve" text-anchor="middle" x="2547" y="-586" font-family="Helvetica,sans-Serif" font-size="10.00">(0.72 → 0.77)</text>
</g>
<!-- github:perovskite_arpes_polaron::gcn_1c2bf8f398f243f9&#45;&gt;strat_3 -->
<g id="edge11" class="edge">
<title>github:perovskite_arpes_polaron::gcn_1c2bf8f398f243f9&#45;&gt;strat_3</title>
<path fill="none" stroke="black" d="M2496.8,-577.02C2462.99,-565.24 2418.96,-549.91 2387.21,-538.85"/>
<polygon fill="black" stroke="black" points="2388.55,-535.61 2377.96,-535.63 2386.25,-542.22 2388.55,-535.61"/>
</g>
<!-- github:perovskite_arpes_polaron::gcn_78dd3a5f6fb84289 -->
<g id="node33" class="node">
<title>github:perovskite_arpes_polaron::gcn_78dd3a5f6fb84289</title>
<polygon fill="#ddffdd" stroke="#44bb44" points="2847,-613.5 2651,-613.5 2651,-577.5 2847,-577.5 2847,-613.5"/>
<text xml:space="preserve" text-anchor="middle" x="2749" y="-598.75" font-family="Helvetica,sans-Serif" font-size="10.00">No small&#45;hole polaron in 300 K AIMD</text>
<text xml:space="preserve" text-anchor="middle" x="2749" y="-586" font-family="Helvetica,sans-Serif" font-size="10.00">(0.88)</text>
</g>
<!-- github:perovskite_arpes_polaron::gcn_82d0efc0c1024ec8 -->
<g id="node34" class="node">
<title>github:perovskite_arpes_polaron::gcn_82d0efc0c1024ec8</title>
<polygon fill="#ddeeff" stroke="#4488bb" points="2621.25,-759 2438.75,-759 2438.75,-723 2621.25,-723 2621.25,-759"/>
<text xml:space="preserve" text-anchor="middle" x="2530" y="-744.25" font-family="Helvetica,sans-Serif" font-size="10.00">Small&#45;polaron simulation criterion</text>
<text xml:space="preserve" text-anchor="middle" x="2530" y="-731.5" font-family="Helvetica,sans-Serif" font-size="10.00">(0.80 → 0.80)</text>
</g>
<!-- strat_4 -->
<g id="node39" class="node">
<title>strat_4</title>
<ellipse fill="#fff9c4" stroke="#f9a825" cx="2639" cy="-669" rx="39.16" ry="18"/>
<text xml:space="preserve" text-anchor="middle" x="2639" y="-665.88" font-family="Helvetica,sans-Serif" font-size="10.00">deduction</text>
</g>
<!-- github:perovskite_arpes_polaron::gcn_82d0efc0c1024ec8&#45;&gt;strat_4 -->
<g id="edge13" class="edge">
<title>github:perovskite_arpes_polaron::gcn_82d0efc0c1024ec8&#45;&gt;strat_4</title>
<path fill="none" stroke="black" d="M2557.22,-722.52C2572.47,-712.72 2591.56,-700.47 2607.46,-690.26"/>
<polygon fill="black" stroke="black" points="2609.08,-693.37 2615.61,-685.02 2605.3,-687.48 2609.08,-693.37"/>
</g>
<!-- github:perovskite_arpes_polaron::gcn_3f848904ab0d4b48 -->
<g id="node35" class="node">
<title>github:perovskite_arpes_polaron::gcn_3f848904ab0d4b48</title>
<polygon fill="#ddffdd" stroke="#44bb44" points="3071.25,-613.5 2864.75,-613.5 2864.75,-577.5 3071.25,-577.5 3071.25,-613.5"/>
<text xml:space="preserve" text-anchor="middle" x="2968" y="-598.75" font-family="Helvetica,sans-Serif" font-size="10.00">Thermal disorder renormalizes masses</text>
<text xml:space="preserve" text-anchor="middle" x="2968" y="-586" font-family="Helvetica,sans-Serif" font-size="10.00">(0.80)</text>
</g>
<!-- strat_12 -->
<g id="node41" class="node">
<title>strat_12</title>
<ellipse fill="#fff9c4" stroke="#f9a825" cx="2701" cy="-523.5" rx="32.28" ry="18"/>
<text xml:space="preserve" text-anchor="middle" x="2701" y="-520.38" font-family="Helvetica,sans-Serif" font-size="10.00">support</text>
</g>
<!-- github:perovskite_arpes_polaron::gcn_3f848904ab0d4b48&#45;&gt;strat_12 -->
<g id="edge34" class="edge">
<title>github:perovskite_arpes_polaron::gcn_3f848904ab0d4b48&#45;&gt;strat_12</title>
<path fill="none" stroke="black" d="M2901.31,-577.02C2850.8,-563.77 2783.1,-546.02 2740.77,-534.93"/>
<polygon fill="black" stroke="black" points="2741.82,-531.58 2731.26,-532.43 2740.05,-538.36 2741.82,-531.58"/>
</g>
<!-- github:perovskite_arpes_polaron::gcn_00749f497c204b4c -->
<g id="node36" class="node">
<title>github:perovskite_arpes_polaron::gcn_00749f497c204b4c</title>
<polygon fill="#ddeeff" stroke="#4488bb" points="2866.38,-759 2639.62,-759 2639.62,-723 2866.38,-723 2866.38,-759"/>
<text xml:space="preserve" text-anchor="middle" x="2753" y="-744.25" font-family="Helvetica,sans-Serif" font-size="10.00">Representative snapshot mass assumption</text>
<text xml:space="preserve" text-anchor="middle" x="2753" y="-731.5" font-family="Helvetica,sans-Serif" font-size="10.00">(0.72 → 0.74)</text>
</g>
<!-- strat_5 -->
<g id="node40" class="node">
<title>strat_5</title>
<ellipse fill="#fff9c4" stroke="#f9a825" cx="2968" cy="-669" rx="39.16" ry="18"/>
<text xml:space="preserve" text-anchor="middle" x="2968" y="-665.88" font-family="Helvetica,sans-Serif" font-size="10.00">deduction</text>
</g>
<!-- github:perovskite_arpes_polaron::gcn_00749f497c204b4c&#45;&gt;strat_5 -->
<g id="edge15" class="edge">
<title>github:perovskite_arpes_polaron::gcn_00749f497c204b4c&#45;&gt;strat_5</title>
<path fill="none" stroke="black" d="M2806.7,-722.52C2843.62,-710.49 2891.96,-694.76 2926.06,-683.66"/>
<polygon fill="black" stroke="black" points="2926.73,-687.12 2935.16,-680.69 2924.56,-680.46 2926.73,-687.12"/>
</g>
<!-- github:perovskite_arpes_polaron::gcn_869be47d79c54464 -->
<g id="node37" class="node">
<title>github:perovskite_arpes_polaron::gcn_869be47d79c54464</title>
<polygon fill="#ddeeff" stroke="#4488bb" points="3071.12,-759 2884.88,-759 2884.88,-723 3071.12,-723 3071.12,-759"/>
<text xml:space="preserve" text-anchor="middle" x="2978" y="-744.25" font-family="Helvetica,sans-Serif" font-size="10.00">Mass change attributed to disorder</text>
<text xml:space="preserve" text-anchor="middle" x="2978" y="-731.5" font-family="Helvetica,sans-Serif" font-size="10.00">(0.72 → 0.74)</text>
</g>
<!-- github:perovskite_arpes_polaron::gcn_869be47d79c54464&#45;&gt;strat_5 -->
<g id="edge16" class="edge">
<title>github:perovskite_arpes_polaron::gcn_869be47d79c54464&#45;&gt;strat_5</title>
<path fill="none" stroke="black" d="M2975.53,-722.7C2974.47,-715.32 2973.22,-706.52 2972.04,-698.25"/>
<polygon fill="black" stroke="black" points="2975.54,-698.01 2970.66,-688.6 2968.61,-699 2975.54,-698.01"/>
</g>
<!-- strat_3&#45;&gt;github:perovskite_arpes_polaron::gcn_e4a5cac31481497c -->
<g id="edge12" class="edge">
<title>strat_3&#45;&gt;github:perovskite_arpes_polaron::gcn_e4a5cac31481497c</title>
<path fill="none" stroke="black" d="M2346,-505.19C2346,-497.52 2346,-488.29 2346,-479.64"/>
<polygon fill="black" stroke="black" points="2349.5,-479.91 2346,-469.91 2342.5,-479.91 2349.5,-479.91"/>
</g>
<!-- strat_4&#45;&gt;github:perovskite_arpes_polaron::gcn_78dd3a5f6fb84289 -->
<g id="edge14" class="edge">
<title>strat_4&#45;&gt;github:perovskite_arpes_polaron::gcn_78dd3a5f6fb84289</title>
<path fill="none" stroke="black" d="M2661,-653.7C2675.91,-644.01 2695.97,-630.97 2713.17,-619.79"/>
<polygon fill="black" stroke="black" points="2714.64,-623.01 2721.11,-614.63 2710.82,-617.14 2714.64,-623.01"/>
</g>
<!-- strat_5&#45;&gt;github:perovskite_arpes_polaron::gcn_3f848904ab0d4b48 -->
<g id="edge17" class="edge">
<title>strat_5&#45;&gt;github:perovskite_arpes_polaron::gcn_3f848904ab0d4b48</title>
<path fill="none" stroke="black" d="M2968,-650.69C2968,-643.02 2968,-633.79 2968,-625.14"/>
<polygon fill="black" stroke="black" points="2971.5,-625.41 2968,-615.41 2964.5,-625.41 2971.5,-625.41"/>
</g>
<!-- strat_12&#45;&gt;github:perovskite_arpes_polaron::gcn_e4a5cac31481497c -->
<g id="edge35" class="edge">
<title>strat_12&#45;&gt;github:perovskite_arpes_polaron::gcn_e4a5cac31481497c</title>
<path fill="none" stroke="black" d="M2670.73,-516.4C2621.03,-506.39 2520.03,-486.05 2443.8,-470.7"/>
<polygon fill="black" stroke="black" points="2444.71,-467.31 2434.22,-468.77 2443.33,-474.17 2444.71,-467.31"/>
</g>
<!-- github:perovskite_arpes_polaron::arpes_polaron_signature_vs_gw_no_polaron -->
<g id="node42" class="node">
<title>github:perovskite_arpes_polaron::arpes_polaron_signature_vs_gw_no_polaron</title>
<polygon fill="#ddffdd" stroke="#44bb44" points="1104.38,-36 877.62,-36 877.62,0 1104.38,0 1104.38,-36"/>
<text xml:space="preserve" text-anchor="middle" x="991" y="-21.25" font-family="Helvetica,sans-Serif" font-size="10.00">ARPES polaron signature vs G0W0 baseline</text>
<text xml:space="preserve" text-anchor="middle" x="991" y="-8.5" font-family="Helvetica,sans-Serif" font-size="10.00">(0.85 → 0.99)</text>
</g>
<!-- strat_9&#45;&gt;github:perovskite_arpes_polaron::gcn_1544d55444d743c8 -->
<g id="edge29" class="edge">
<title>strat_9&#45;&gt;github:perovskite_arpes_polaron::gcn_1544d55444d743c8</title>
<path fill="none" stroke="black" d="M2141.66,-372.62C2068.27,-362.37 1882.81,-336.46 1768.12,-320.43"/>
<polygon fill="black" stroke="black" points="1768.8,-316.99 1758.41,-319.07 1767.83,-323.92 1768.8,-316.99"/>
</g>
<!-- oper_0&#45;&gt;github:perovskite_arpes_polaron::arpes_polaron_signature_vs_gw_no_polaron -->
<g id="edge41" class="edge">
<title>oper_0&#45;&gt;github:perovskite_arpes_polaron::arpes_polaron_signature_vs_gw_no_polaron</title>
<path fill="none" stroke="black" d="M991,-71.7C991,-60.85 991,-46.92 991,-36.1"/>
</g>
</g>
</svg>
