<?xml version="1.0" encoding="UTF-8" standalone="no"?>
<!DOCTYPE svg PUBLIC "-//W3C//DTD SVG 1.1//EN"
 "http://www.w3.org/Graphics/SVG/1.1/DTD/svg11.dtd">
<!-- Generated by graphviz version 14.1.5 (20260411.2331)
 -->
<!-- Title: starmap Pages: 1 -->
<svg width="2270pt" height="387pt"
 viewBox="0.00 0.00 2270.00 387.00" xmlns="http://www.w3.org/2000/svg" xmlns:xlink="http://www.w3.org/1999/xlink">
<g id="graph0" class="graph" transform="scale(1 1) rotate(0) translate(4 383)">
<title>starmap</title>
<polygon fill="white" stroke="none" points="-4,4 -4,-383 2266,-383 2266,4 -4,4"/>
<g id="clust1" class="cluster">
<title>cluster_paper_puppin2020</title>
<path fill="#fafafa" stroke="#999999" d="M20,-8C20,-8 596,-8 596,-8 602,-8 608,-14 608,-20 608,-20 608,-213.5 608,-213.5 608,-219.5 602,-225.5 596,-225.5 596,-225.5 20,-225.5 20,-225.5 14,-225.5 8,-219.5 8,-213.5 8,-213.5 8,-20 8,-20 8,-14 14,-8 20,-8"/>
<text xml:space="preserve" text-anchor="middle" x="308" y="-211.05" font-family="Times,serif" font-size="11.00">paper_puppin2020</text>
</g>
<g id="clust2" class="cluster">
<title>cluster_paper_sajedi2022</title>
<path fill="#fafafa" stroke="#999999" d="M1222,-152C1222,-152 2242,-152 2242,-152 2248,-152 2254,-158 2254,-164 2254,-164 2254,-359 2254,-359 2254,-365 2248,-371 2242,-371 2242,-371 1222,-371 1222,-371 1216,-371 1210,-365 1210,-359 1210,-359 1210,-164 1210,-164 1210,-158 1216,-152 1222,-152"/>
<text xml:space="preserve" text-anchor="middle" x="1732" y="-356.55" font-family="Times,serif" font-size="11.00">paper_sajedi2022</text>
</g>
<g id="clust3" class="cluster">
<title>cluster_paper_zhao2025</title>
<path fill="#fafafa" stroke="#999999" d="M628,-152C628,-152 1190,-152 1190,-152 1196,-152 1202,-158 1202,-164 1202,-164 1202,-359 1202,-359 1202,-365 1196,-371 1190,-371 1190,-371 628,-371 628,-371 622,-371 616,-365 616,-359 616,-359 616,-164 616,-164 616,-158 622,-152 628,-152"/>
<text xml:space="preserve" text-anchor="middle" x="909" y="-356.55" font-family="Times,serif" font-size="11.00">paper_zhao2025</text>
</g>
<!-- github:perovskite_arpes_polaron::gcn_1544d55444d743c8 -->
<g id="node1" class="node">
<title>github:perovskite_arpes_polaron::gcn_1544d55444d743c8</title>
<polygon fill="#d4edda" stroke="#28a745" stroke-width="2" points="599.88,-52 454.12,-52 454.12,-16 599.88,-16 599.88,-52"/>
<text xml:space="preserve" text-anchor="middle" x="527" y="-37.25" font-family="Helvetica,sans-Serif" font-size="10.00">★ gcn_1544d55444d743c8</text>
<text xml:space="preserve" text-anchor="middle" x="527" y="-24.5" font-family="Helvetica,sans-Serif" font-size="10.00">(0.97)</text>
</g>
<!-- github:perovskite_arpes_polaron::gcn_2e9e6e30a5d7431c -->
<g id="node2" class="node">
<title>github:perovskite_arpes_polaron::gcn_2e9e6e30a5d7431c</title>
<polygon fill="#ddeeff" stroke="#4488bb" points="599.88,-196 466.12,-196 466.12,-160 599.88,-160 599.88,-196"/>
<text xml:space="preserve" text-anchor="middle" x="533" y="-181.25" font-family="Helvetica,sans-Serif" font-size="10.00">gcn_2e9e6e30a5d7431c</text>
<text xml:space="preserve" text-anchor="middle" x="533" y="-168.5" font-family="Helvetica,sans-Serif" font-size="10.00">(0.82 → 0.87)</text>
</g>
<!-- strat_0 -->
<g id="node7" class="node">
<title>strat_0</title>
<ellipse fill="#fff9c4" stroke="#f9a825" cx="454" cy="-106" rx="39.16" ry="18"/>
<text xml:space="preserve" text-anchor="middle" x="454" y="-102.88" font-family="Helvetica,sans-Serif" font-size="10.00">deduction</text>
</g>
<!-- github:perovskite_arpes_polaron::gcn_2e9e6e30a5d7431c&#45;&gt;strat_0 -->
<g id="edge1" class="edge">
<title>github:perovskite_arpes_polaron::gcn_2e9e6e30a5d7431c&#45;&gt;strat_0</title>
<path fill="none" stroke="black" d="M513.47,-159.7C503.3,-150.69 490.74,-139.56 479.79,-129.85"/>
<polygon fill="black" stroke="black" points="482.36,-127.45 472.55,-123.44 477.72,-132.69 482.36,-127.45"/>
</g>
<!-- github:perovskite_arpes_polaron::gcn_0a71cf6357114b76 -->
<g id="node3" class="node">
<title>github:perovskite_arpes_polaron::gcn_0a71cf6357114b76</title>
<polygon fill="#ddeeff" stroke="#4488bb" points="295.75,-196 164.25,-196 164.25,-160 295.75,-160 295.75,-196"/>
<text xml:space="preserve" text-anchor="middle" x="230" y="-181.25" font-family="Helvetica,sans-Serif" font-size="10.00">gcn_0a71cf6357114b76</text>
<text xml:space="preserve" text-anchor="middle" x="230" y="-168.5" font-family="Helvetica,sans-Serif" font-size="10.00">(0.80 → 0.86)</text>
</g>
<!-- github:perovskite_arpes_polaron::gcn_0a71cf6357114b76&#45;&gt;strat_0 -->
<g id="edge2" class="edge">
<title>github:perovskite_arpes_polaron::gcn_0a71cf6357114b76&#45;&gt;strat_0</title>
<path fill="none" stroke="black" d="M281.58,-159.59C289.41,-157.01 297.41,-154.41 305,-152 340.51,-140.72 380.99,-128.54 410.79,-119.7"/>
<polygon fill="black" stroke="black" points="411.61,-123.1 420.2,-116.91 409.62,-116.39 411.61,-123.1"/>
</g>
<!-- github:perovskite_arpes_polaron::gcn_e24a3d64aa604555 -->
<g id="node4" class="node">
<title>github:perovskite_arpes_polaron::gcn_e24a3d64aa604555</title>
<polygon fill="#ddeeff" stroke="#4488bb" points="448.25,-196 313.75,-196 313.75,-160 448.25,-160 448.25,-196"/>
<text xml:space="preserve" text-anchor="middle" x="381" y="-181.25" font-family="Helvetica,sans-Serif" font-size="10.00">gcn_e24a3d64aa604555</text>
<text xml:space="preserve" text-anchor="middle" x="381" y="-168.5" font-family="Helvetica,sans-Serif" font-size="10.00">(0.84 → 0.89)</text>
</g>
<!-- github:perovskite_arpes_polaron::gcn_e24a3d64aa604555&#45;&gt;strat_0 -->
<g id="edge3" class="edge">
<title>github:perovskite_arpes_polaron::gcn_e24a3d64aa604555&#45;&gt;strat_0</title>
<path fill="none" stroke="black" d="M399.04,-159.7C408.19,-150.93 419.43,-140.15 429.36,-130.63"/>
<polygon fill="black" stroke="black" points="431.77,-133.17 436.56,-123.72 426.92,-128.11 431.77,-133.17"/>
</g>
<!-- github:perovskite_arpes_polaron::gcn_5e907da32c114d34 -->
<g id="node5" class="node">
<title>github:perovskite_arpes_polaron::gcn_5e907da32c114d34</title>
<polygon fill="#ddffdd" stroke="#44bb44" points="149.88,-52 16.12,-52 16.12,-16 149.88,-16 149.88,-52"/>
<text xml:space="preserve" text-anchor="middle" x="83" y="-37.25" font-family="Helvetica,sans-Serif" font-size="10.00">gcn_5e907da32c114d34</text>
<text xml:space="preserve" text-anchor="middle" x="83" y="-24.5" font-family="Helvetica,sans-Serif" font-size="10.00">(0.84)</text>
</g>
<!-- github:perovskite_arpes_polaron::gcn_943f1f964b7a4374 -->
<g id="node6" class="node">
<title>github:perovskite_arpes_polaron::gcn_943f1f964b7a4374</title>
<polygon fill="#ddeeff" stroke="#4488bb" points="146,-196 16,-196 16,-160 146,-160 146,-196"/>
<text xml:space="preserve" text-anchor="middle" x="81" y="-181.25" font-family="Helvetica,sans-Serif" font-size="10.00">gcn_943f1f964b7a4374</text>
<text xml:space="preserve" text-anchor="middle" x="81" y="-168.5" font-family="Helvetica,sans-Serif" font-size="10.00">(0.72 → 0.72)</text>
</g>
<!-- strat_1 -->
<g id="node8" class="node">
<title>strat_1</title>
<ellipse fill="#fff9c4" stroke="#f9a825" cx="82" cy="-106" rx="39.16" ry="18"/>
<text xml:space="preserve" text-anchor="middle" x="82" y="-102.88" font-family="Helvetica,sans-Serif" font-size="10.00">deduction</text>
</g>
<!-- github:perovskite_arpes_polaron::gcn_943f1f964b7a4374&#45;&gt;strat_1 -->
<g id="edge5" class="edge">
<title>github:perovskite_arpes_polaron::gcn_943f1f964b7a4374&#45;&gt;strat_1</title>
<path fill="none" stroke="black" d="M81.25,-159.7C81.35,-152.41 81.48,-143.73 81.59,-135.54"/>
<polygon fill="black" stroke="black" points="85.09,-135.67 81.73,-125.62 78.09,-135.57 85.09,-135.67"/>
</g>
<!-- strat_0&#45;&gt;github:perovskite_arpes_polaron::gcn_1544d55444d743c8 -->
<g id="edge4" class="edge">
<title>strat_0&#45;&gt;github:perovskite_arpes_polaron::gcn_1544d55444d743c8</title>
<path fill="none" stroke="black" d="M470.2,-89.46C479,-81.03 490.1,-70.39 500.15,-60.75"/>
<polygon fill="black" stroke="black" points="502.38,-63.46 507.17,-54.01 497.53,-58.41 502.38,-63.46"/>
</g>
<!-- strat_1&#45;&gt;github:perovskite_arpes_polaron::gcn_5e907da32c114d34 -->
<g id="edge6" class="edge">
<title>strat_1&#45;&gt;github:perovskite_arpes_polaron::gcn_5e907da32c114d34</title>
<path fill="none" stroke="black" d="M82.25,-87.7C82.35,-80.41 82.48,-71.73 82.59,-63.54"/>
<polygon fill="black" stroke="black" points="86.09,-63.67 82.73,-53.62 79.09,-63.57 86.09,-63.67"/>
</g>
<!-- github:perovskite_arpes_polaron::gcn_4d0e277c6d2c4cdc -->
<g id="node9" class="node">
<title>github:perovskite_arpes_polaron::gcn_4d0e277c6d2c4cdc</title>
<polygon fill="#ddffdd" stroke="#44bb44" points="1498.75,-196 1367.25,-196 1367.25,-160 1498.75,-160 1498.75,-196"/>
<text xml:space="preserve" text-anchor="middle" x="1433" y="-181.25" font-family="Helvetica,sans-Serif" font-size="10.00">gcn_4d0e277c6d2c4cdc</text>
<text xml:space="preserve" text-anchor="middle" x="1433" y="-168.5" font-family="Helvetica,sans-Serif" font-size="10.00">(0.74)</text>
</g>
<!-- github:perovskite_arpes_polaron::gcn_e17b013445234bfa -->
<g id="node10" class="node">
<title>github:perovskite_arpes_polaron::gcn_e17b013445234bfa</title>
<polygon fill="#ddeeff" stroke="#4488bb" points="1350.12,-341.5 1217.88,-341.5 1217.88,-305.5 1350.12,-305.5 1350.12,-341.5"/>
<text xml:space="preserve" text-anchor="middle" x="1284" y="-326.75" font-family="Helvetica,sans-Serif" font-size="10.00">gcn_e17b013445234bfa</text>
<text xml:space="preserve" text-anchor="middle" x="1284" y="-314" font-family="Helvetica,sans-Serif" font-size="10.00">(0.80 → 0.80)</text>
</g>
<!-- strat_4 -->
<g id="node19" class="node">
<title>strat_4</title>
<ellipse fill="#fff9c4" stroke="#f9a825" cx="1433" cy="-251.5" rx="39.16" ry="18"/>
<text xml:space="preserve" text-anchor="middle" x="1433" y="-248.38" font-family="Helvetica,sans-Serif" font-size="10.00">deduction</text>
</g>
<!-- github:perovskite_arpes_polaron::gcn_e17b013445234bfa&#45;&gt;strat_4 -->
<g id="edge13" class="edge">
<title>github:perovskite_arpes_polaron::gcn_e17b013445234bfa&#45;&gt;strat_4</title>
<path fill="none" stroke="black" d="M1321.21,-305.02C1344.13,-294.25 1373.4,-280.5 1396.23,-269.77"/>
<polygon fill="black" stroke="black" points="1397.61,-272.99 1405.18,-265.57 1394.64,-266.66 1397.61,-272.99"/>
</g>
<!-- github:perovskite_arpes_polaron::gcn_ccc6a5bf10864de7 -->
<g id="node11" class="node">
<title>github:perovskite_arpes_polaron::gcn_ccc6a5bf10864de7</title>
<polygon fill="#ddeeff" stroke="#4488bb" points="1498,-341.5 1368,-341.5 1368,-305.5 1498,-305.5 1498,-341.5"/>
<text xml:space="preserve" text-anchor="middle" x="1433" y="-326.75" font-family="Helvetica,sans-Serif" font-size="10.00">gcn_ccc6a5bf10864de7</text>
<text xml:space="preserve" text-anchor="middle" x="1433" y="-314" font-family="Helvetica,sans-Serif" font-size="10.00">(0.80 → 0.80)</text>
</g>
<!-- github:perovskite_arpes_polaron::gcn_ccc6a5bf10864de7&#45;&gt;strat_4 -->
<g id="edge14" class="edge">
<title>github:perovskite_arpes_polaron::gcn_ccc6a5bf10864de7&#45;&gt;strat_4</title>
<path fill="none" stroke="black" d="M1433,-305.2C1433,-297.91 1433,-289.23 1433,-281.04"/>
<polygon fill="black" stroke="black" points="1436.5,-281.12 1433,-271.12 1429.5,-281.12 1436.5,-281.12"/>
</g>
<!-- github:perovskite_arpes_polaron::gcn_3e860bd7f76e4767 -->
<g id="node12" class="node">
<title>github:perovskite_arpes_polaron::gcn_3e860bd7f76e4767</title>
<polygon fill="#ddeeff" stroke="#4488bb" points="1648.12,-341.5 1515.88,-341.5 1515.88,-305.5 1648.12,-305.5 1648.12,-341.5"/>
<text xml:space="preserve" text-anchor="middle" x="1582" y="-326.75" font-family="Helvetica,sans-Serif" font-size="10.00">gcn_3e860bd7f76e4767</text>
<text xml:space="preserve" text-anchor="middle" x="1582" y="-314" font-family="Helvetica,sans-Serif" font-size="10.00">(0.80 → 0.80)</text>
</g>
<!-- github:perovskite_arpes_polaron::gcn_3e860bd7f76e4767&#45;&gt;strat_4 -->
<g id="edge15" class="edge">
<title>github:perovskite_arpes_polaron::gcn_3e860bd7f76e4767&#45;&gt;strat_4</title>
<path fill="none" stroke="black" d="M1544.79,-305.02C1521.87,-294.25 1492.6,-280.5 1469.77,-269.77"/>
<polygon fill="black" stroke="black" points="1471.36,-266.66 1460.82,-265.57 1468.39,-272.99 1471.36,-266.66"/>
</g>
<!-- github:perovskite_arpes_polaron::gcn_8c3c520295d7488c -->
<g id="node13" class="node">
<title>github:perovskite_arpes_polaron::gcn_8c3c520295d7488c</title>
<polygon fill="#ddffdd" stroke="#44bb44" points="1724.12,-196 1591.88,-196 1591.88,-160 1724.12,-160 1724.12,-196"/>
<text xml:space="preserve" text-anchor="middle" x="1658" y="-181.25" font-family="Helvetica,sans-Serif" font-size="10.00">gcn_8c3c520295d7488c</text>
<text xml:space="preserve" text-anchor="middle" x="1658" y="-168.5" font-family="Helvetica,sans-Serif" font-size="10.00">(0.86)</text>
</g>
<!-- strat_8 -->
<g id="node31" class="node">
<title>strat_8</title>
<ellipse fill="#fff9c4" stroke="#f9a825" cx="1279" cy="-106" rx="32.28" ry="18"/>
<text xml:space="preserve" text-anchor="middle" x="1279" y="-102.88" font-family="Helvetica,sans-Serif" font-size="10.00">support</text>
</g>
<!-- github:perovskite_arpes_polaron::gcn_8c3c520295d7488c&#45;&gt;strat_8 -->
<g id="edge25" class="edge">
<title>github:perovskite_arpes_polaron::gcn_8c3c520295d7488c&#45;&gt;strat_8</title>
<path fill="none" stroke="black" d="M1591.55,-164.73C1513.24,-150.26 1385.55,-126.68 1320.27,-114.62"/>
<polygon fill="black" stroke="black" points="1321.17,-111.23 1310.7,-112.85 1319.9,-118.11 1321.17,-111.23"/>
</g>
<!-- github:perovskite_arpes_polaron::gcn_ec768b9675814820 -->
<g id="node14" class="node">
<title>github:perovskite_arpes_polaron::gcn_ec768b9675814820</title>
<polygon fill="#ddeeff" stroke="#4488bb" points="1799.88,-341.5 1666.12,-341.5 1666.12,-305.5 1799.88,-305.5 1799.88,-341.5"/>
<text xml:space="preserve" text-anchor="middle" x="1733" y="-326.75" font-family="Helvetica,sans-Serif" font-size="10.00">gcn_ec768b9675814820</text>
<text xml:space="preserve" text-anchor="middle" x="1733" y="-314" font-family="Helvetica,sans-Serif" font-size="10.00">(0.80 → 0.82)</text>
</g>
<!-- strat_5 -->
<g id="node20" class="node">
<title>strat_5</title>
<ellipse fill="#fff9c4" stroke="#f9a825" cx="1733" cy="-251.5" rx="39.16" ry="18"/>
<text xml:space="preserve" text-anchor="middle" x="1733" y="-248.38" font-family="Helvetica,sans-Serif" font-size="10.00">deduction</text>
</g>
<!-- github:perovskite_arpes_polaron::gcn_ec768b9675814820&#45;&gt;strat_5 -->
<g id="edge17" class="edge">
<title>github:perovskite_arpes_polaron::gcn_ec768b9675814820&#45;&gt;strat_5</title>
<path fill="none" stroke="black" d="M1733,-305.2C1733,-297.91 1733,-289.23 1733,-281.04"/>
<polygon fill="black" stroke="black" points="1736.5,-281.12 1733,-271.12 1729.5,-281.12 1736.5,-281.12"/>
</g>
<!-- github:perovskite_arpes_polaron::gcn_5868b15c687043a9 -->
<g id="node15" class="node">
<title>github:perovskite_arpes_polaron::gcn_5868b15c687043a9</title>
<polygon fill="#ddeeff" stroke="#4488bb" points="1951.88,-341.5 1818.12,-341.5 1818.12,-305.5 1951.88,-305.5 1951.88,-341.5"/>
<text xml:space="preserve" text-anchor="middle" x="1885" y="-326.75" font-family="Helvetica,sans-Serif" font-size="10.00">gcn_5868b15c687043a9</text>
<text xml:space="preserve" text-anchor="middle" x="1885" y="-314" font-family="Helvetica,sans-Serif" font-size="10.00">(0.80 → 0.82)</text>
</g>
<!-- github:perovskite_arpes_polaron::gcn_5868b15c687043a9&#45;&gt;strat_5 -->
<g id="edge18" class="edge">
<title>github:perovskite_arpes_polaron::gcn_5868b15c687043a9&#45;&gt;strat_5</title>
<path fill="none" stroke="black" d="M1847.04,-305.02C1823.55,-294.2 1793.53,-280.38 1770.19,-269.63"/>
<polygon fill="black" stroke="black" points="1771.91,-266.56 1761.36,-265.56 1768.98,-272.92 1771.91,-266.56"/>
</g>
<!-- github:perovskite_arpes_polaron::gcn_762777de8c644c17 -->
<g id="node16" class="node">
<title>github:perovskite_arpes_polaron::gcn_762777de8c644c17</title>
<polygon fill="#ddffdd" stroke="#44bb44" points="2172.5,-196 2039.5,-196 2039.5,-160 2172.5,-160 2172.5,-196"/>
<text xml:space="preserve" text-anchor="middle" x="2106" y="-181.25" font-family="Helvetica,sans-Serif" font-size="10.00">gcn_762777de8c644c17</text>
<text xml:space="preserve" text-anchor="middle" x="2106" y="-168.5" font-family="Helvetica,sans-Serif" font-size="10.00">(0.77)</text>
</g>
<!-- github:perovskite_arpes_polaron::gcn_1fc9a84fbc6e4a1b -->
<g id="node17" class="node">
<title>github:perovskite_arpes_polaron::gcn_1fc9a84fbc6e4a1b</title>
<polygon fill="#ddeeff" stroke="#4488bb" points="2098.25,-341.5 1969.75,-341.5 1969.75,-305.5 2098.25,-305.5 2098.25,-341.5"/>
<text xml:space="preserve" text-anchor="middle" x="2034" y="-326.75" font-family="Helvetica,sans-Serif" font-size="10.00">gcn_1fc9a84fbc6e4a1b</text>
<text xml:space="preserve" text-anchor="middle" x="2034" y="-314" font-family="Helvetica,sans-Serif" font-size="10.00">(0.72 → 0.72)</text>
</g>
<!-- strat_6 -->
<g id="node21" class="node">
<title>strat_6</title>
<ellipse fill="#fff9c4" stroke="#f9a825" cx="2106" cy="-251.5" rx="39.16" ry="18"/>
<text xml:space="preserve" text-anchor="middle" x="2106" y="-248.38" font-family="Helvetica,sans-Serif" font-size="10.00">deduction</text>
</g>
<!-- github:perovskite_arpes_polaron::gcn_1fc9a84fbc6e4a1b&#45;&gt;strat_6 -->
<g id="edge20" class="edge">
<title>github:perovskite_arpes_polaron::gcn_1fc9a84fbc6e4a1b&#45;&gt;strat_6</title>
<path fill="none" stroke="black" d="M2051.8,-305.2C2060.82,-296.43 2071.9,-285.65 2081.69,-276.13"/>
<polygon fill="black" stroke="black" points="2084.07,-278.71 2088.8,-269.23 2079.19,-273.69 2084.07,-278.71"/>
</g>
<!-- github:perovskite_arpes_polaron::gcn_e808f6450bfc4207 -->
<g id="node18" class="node">
<title>github:perovskite_arpes_polaron::gcn_e808f6450bfc4207</title>
<polygon fill="#ddeeff" stroke="#4488bb" points="2245.62,-341.5 2116.38,-341.5 2116.38,-305.5 2245.62,-305.5 2245.62,-341.5"/>
<text xml:space="preserve" text-anchor="middle" x="2181" y="-326.75" font-family="Helvetica,sans-Serif" font-size="10.00">gcn_e808f6450bfc4207</text>
<text xml:space="preserve" text-anchor="middle" x="2181" y="-314" font-family="Helvetica,sans-Serif" font-size="10.00">(0.80 → 0.80)</text>
</g>
<!-- github:perovskite_arpes_polaron::gcn_e808f6450bfc4207&#45;&gt;strat_6 -->
<g id="edge21" class="edge">
<title>github:perovskite_arpes_polaron::gcn_e808f6450bfc4207&#45;&gt;strat_6</title>
<path fill="none" stroke="black" d="M2162.46,-305.2C2152.97,-296.34 2141.28,-285.43 2131.01,-275.84"/>
<polygon fill="black" stroke="black" points="2133.6,-273.47 2123.9,-269.2 2128.82,-278.59 2133.6,-273.47"/>
</g>
<!-- strat_4&#45;&gt;github:perovskite_arpes_polaron::gcn_4d0e277c6d2c4cdc -->
<g id="edge16" class="edge">
<title>strat_4&#45;&gt;github:perovskite_arpes_polaron::gcn_4d0e277c6d2c4cdc</title>
<path fill="none" stroke="black" d="M1433,-233.19C1433,-225.52 1433,-216.29 1433,-207.64"/>
<polygon fill="black" stroke="black" points="1436.5,-207.91 1433,-197.91 1429.5,-207.91 1436.5,-207.91"/>
</g>
<!-- strat_5&#45;&gt;github:perovskite_arpes_polaron::gcn_8c3c520295d7488c -->
<g id="edge19" class="edge">
<title>strat_5&#45;&gt;github:perovskite_arpes_polaron::gcn_8c3c520295d7488c</title>
<path fill="none" stroke="black" d="M1716.73,-234.99C1707.34,-226.04 1695.32,-214.58 1684.59,-204.35"/>
<polygon fill="black" stroke="black" points="1687.1,-201.91 1677.45,-197.54 1682.27,-206.97 1687.1,-201.91"/>
</g>
<!-- strat_6&#45;&gt;github:perovskite_arpes_polaron::gcn_762777de8c644c17 -->
<g id="edge22" class="edge">
<title>strat_6&#45;&gt;github:perovskite_arpes_polaron::gcn_762777de8c644c17</title>
<path fill="none" stroke="black" d="M2106,-233.19C2106,-225.52 2106,-216.29 2106,-207.64"/>
<polygon fill="black" stroke="black" points="2109.5,-207.91 2106,-197.91 2102.5,-207.91 2109.5,-207.91"/>
</g>
<!-- github:perovskite_arpes_polaron::gcn_e4a5cac31481497c -->
<g id="node22" class="node">
<title>github:perovskite_arpes_polaron::gcn_e4a5cac31481497c</title>
<polygon fill="#ddffdd" stroke="#44bb44" points="833.12,-196 700.88,-196 700.88,-160 833.12,-160 833.12,-196"/>
<text xml:space="preserve" text-anchor="middle" x="767" y="-181.25" font-family="Helvetica,sans-Serif" font-size="10.00">gcn_e4a5cac31481497c</text>
<text xml:space="preserve" text-anchor="middle" x="767" y="-168.5" font-family="Helvetica,sans-Serif" font-size="10.00">(0.77)</text>
</g>
<!-- strat_7 -->
<g id="node30" class="node">
<title>strat_7</title>
<ellipse fill="#fff9c4" stroke="#f9a825" cx="743" cy="-106" rx="32.28" ry="18"/>
<text xml:space="preserve" text-anchor="middle" x="743" y="-102.88" font-family="Helvetica,sans-Serif" font-size="10.00">support</text>
</g>
<!-- github:perovskite_arpes_polaron::gcn_e4a5cac31481497c&#45;&gt;strat_7 -->
<g id="edge23" class="edge">
<title>github:perovskite_arpes_polaron::gcn_e4a5cac31481497c&#45;&gt;strat_7</title>
<path fill="none" stroke="black" d="M761.07,-159.7C758.51,-152.24 755.45,-143.32 752.59,-134.97"/>
<polygon fill="black" stroke="black" points="755.91,-133.86 749.36,-125.54 749.29,-136.13 755.91,-133.86"/>
</g>
<!-- github:perovskite_arpes_polaron::gcn_c24c81b8a5fe413c -->
<g id="node23" class="node">
<title>github:perovskite_arpes_polaron::gcn_c24c81b8a5fe413c</title>
<polygon fill="#ddeeff" stroke="#4488bb" points="754,-341.5 624,-341.5 624,-305.5 754,-305.5 754,-341.5"/>
<text xml:space="preserve" text-anchor="middle" x="689" y="-326.75" font-family="Helvetica,sans-Serif" font-size="10.00">gcn_c24c81b8a5fe413c</text>
<text xml:space="preserve" text-anchor="middle" x="689" y="-314" font-family="Helvetica,sans-Serif" font-size="10.00">(0.72 → 0.74)</text>
</g>
<!-- strat_2 -->
<g id="node28" class="node">
<title>strat_2</title>
<ellipse fill="#fff9c4" stroke="#f9a825" cx="791" cy="-251.5" rx="39.16" ry="18"/>
<text xml:space="preserve" text-anchor="middle" x="791" y="-248.38" font-family="Helvetica,sans-Serif" font-size="10.00">deduction</text>
</g>
<!-- github:perovskite_arpes_polaron::gcn_c24c81b8a5fe413c&#45;&gt;strat_2 -->
<g id="edge7" class="edge">
<title>github:perovskite_arpes_polaron::gcn_c24c81b8a5fe413c&#45;&gt;strat_2</title>
<path fill="none" stroke="black" d="M714.48,-305.02C728.51,-295.38 746.03,-283.36 760.75,-273.26"/>
<polygon fill="black" stroke="black" points="762.45,-276.34 768.72,-267.79 758.49,-270.56 762.45,-276.34"/>
</g>
<!-- github:perovskite_arpes_polaron::gcn_43c66f240368417e -->
<g id="node24" class="node">
<title>github:perovskite_arpes_polaron::gcn_43c66f240368417e</title>
<polygon fill="#ddeeff" stroke="#4488bb" points="903.75,-341.5 772.25,-341.5 772.25,-305.5 903.75,-305.5 903.75,-341.5"/>
<text xml:space="preserve" text-anchor="middle" x="838" y="-326.75" font-family="Helvetica,sans-Serif" font-size="10.00">gcn_43c66f240368417e</text>
<text xml:space="preserve" text-anchor="middle" x="838" y="-314" font-family="Helvetica,sans-Serif" font-size="10.00">(0.72 → 0.74)</text>
</g>
<!-- github:perovskite_arpes_polaron::gcn_43c66f240368417e&#45;&gt;strat_2 -->
<g id="edge8" class="edge">
<title>github:perovskite_arpes_polaron::gcn_43c66f240368417e&#45;&gt;strat_2</title>
<path fill="none" stroke="black" d="M826.38,-305.2C821.01,-297.2 814.51,-287.52 808.56,-278.65"/>
<polygon fill="black" stroke="black" points="811.48,-276.73 803,-270.38 805.67,-280.63 811.48,-276.73"/>
</g>
<!-- github:perovskite_arpes_polaron::gcn_1c2bf8f398f243f9 -->
<g id="node25" class="node">
<title>github:perovskite_arpes_polaron::gcn_1c2bf8f398f243f9</title>
<polygon fill="#ddeeff" stroke="#4488bb" points="1046.38,-341.5 921.62,-341.5 921.62,-305.5 1046.38,-305.5 1046.38,-341.5"/>
<text xml:space="preserve" text-anchor="middle" x="984" y="-326.75" font-family="Helvetica,sans-Serif" font-size="10.00">gcn_1c2bf8f398f243f9</text>
<text xml:space="preserve" text-anchor="middle" x="984" y="-314" font-family="Helvetica,sans-Serif" font-size="10.00">(0.72 → 0.74)</text>
</g>
<!-- github:perovskite_arpes_polaron::gcn_1c2bf8f398f243f9&#45;&gt;strat_2 -->
<g id="edge9" class="edge">
<title>github:perovskite_arpes_polaron::gcn_1c2bf8f398f243f9&#45;&gt;strat_2</title>
<path fill="none" stroke="black" d="M935.8,-305.02C903.78,-293.4 862.2,-278.32 831.82,-267.3"/>
<polygon fill="black" stroke="black" points="833.18,-264.08 822.59,-263.96 830.8,-270.66 833.18,-264.08"/>
</g>
<!-- github:perovskite_arpes_polaron::gcn_78dd3a5f6fb84289 -->
<g id="node26" class="node">
<title>github:perovskite_arpes_polaron::gcn_78dd3a5f6fb84289</title>
<polygon fill="#ddffdd" stroke="#44bb44" points="1194,-196 1064,-196 1064,-160 1194,-160 1194,-196"/>
<text xml:space="preserve" text-anchor="middle" x="1129" y="-181.25" font-family="Helvetica,sans-Serif" font-size="10.00">gcn_78dd3a5f6fb84289</text>
<text xml:space="preserve" text-anchor="middle" x="1129" y="-168.5" font-family="Helvetica,sans-Serif" font-size="10.00">(0.88)</text>
</g>
<!-- github:perovskite_arpes_polaron::gcn_82d0efc0c1024ec8 -->
<g id="node27" class="node">
<title>github:perovskite_arpes_polaron::gcn_82d0efc0c1024ec8</title>
<polygon fill="#ddeeff" stroke="#4488bb" points="1194,-341.5 1064,-341.5 1064,-305.5 1194,-305.5 1194,-341.5"/>
<text xml:space="preserve" text-anchor="middle" x="1129" y="-326.75" font-family="Helvetica,sans-Serif" font-size="10.00">gcn_82d0efc0c1024ec8</text>
<text xml:space="preserve" text-anchor="middle" x="1129" y="-314" font-family="Helvetica,sans-Serif" font-size="10.00">(0.80 → 0.80)</text>
</g>
<!-- strat_3 -->
<g id="node29" class="node">
<title>strat_3</title>
<ellipse fill="#fff9c4" stroke="#f9a825" cx="1129" cy="-251.5" rx="39.16" ry="18"/>
<text xml:space="preserve" text-anchor="middle" x="1129" y="-248.38" font-family="Helvetica,sans-Serif" font-size="10.00">deduction</text>
</g>
<!-- github:perovskite_arpes_polaron::gcn_82d0efc0c1024ec8&#45;&gt;strat_3 -->
<g id="edge11" class="edge">
<title>github:perovskite_arpes_polaron::gcn_82d0efc0c1024ec8&#45;&gt;strat_3</title>
<path fill="none" stroke="black" d="M1129,-305.2C1129,-297.91 1129,-289.23 1129,-281.04"/>
<polygon fill="black" stroke="black" points="1132.5,-281.12 1129,-271.12 1125.5,-281.12 1132.5,-281.12"/>
</g>
<!-- strat_2&#45;&gt;github:perovskite_arpes_polaron::gcn_e4a5cac31481497c -->
<g id="edge10" class="edge">
<title>strat_2&#45;&gt;github:perovskite_arpes_polaron::gcn_e4a5cac31481497c</title>
<path fill="none" stroke="black" d="M785.31,-233.56C782.66,-225.66 779.44,-216.05 776.43,-207.11"/>
<polygon fill="black" stroke="black" points="779.8,-206.12 773.3,-197.75 773.16,-208.35 779.8,-206.12"/>
</g>
<!-- strat_3&#45;&gt;github:perovskite_arpes_polaron::gcn_78dd3a5f6fb84289 -->
<g id="edge12" class="edge">
<title>strat_3&#45;&gt;github:perovskite_arpes_polaron::gcn_78dd3a5f6fb84289</title>
<path fill="none" stroke="black" d="M1129,-233.19C1129,-225.52 1129,-216.29 1129,-207.64"/>
<polygon fill="black" stroke="black" points="1132.5,-207.91 1129,-197.91 1125.5,-207.91 1132.5,-207.91"/>
</g>
<!-- strat_7&#45;&gt;github:perovskite_arpes_polaron::gcn_1544d55444d743c8 -->
<g id="edge24" class="edge">
<title>strat_7&#45;&gt;github:perovskite_arpes_polaron::gcn_1544d55444d743c8</title>
<path fill="none" stroke="black" d="M715.64,-96.13C685.01,-86.21 634.25,-69.76 593.1,-56.42"/>
<polygon fill="black" stroke="black" points="594.35,-53.15 583.76,-53.4 592.2,-59.81 594.35,-53.15"/>
</g>
<!-- strat_8&#45;&gt;github:perovskite_arpes_polaron::gcn_1544d55444d743c8 -->
<g id="edge26" class="edge">
<title>strat_8&#45;&gt;github:perovskite_arpes_polaron::gcn_1544d55444d743c8</title>
<path fill="none" stroke="black" d="M1247.17,-102.04C1138.2,-91.89 777.74,-58.34 611.87,-42.9"/>
<polygon fill="black" stroke="black" points="612.54,-39.45 602.26,-42.01 611.89,-46.42 612.54,-39.45"/>
</g>
</g>
</svg>
